<svg width="26" height="26" viewBox="0 0 26 26" fill="none" xmlns="http://www.w3.org/2000/svg">
<path fill-rule="evenodd" clip-rule="evenodd" d="M23 4.5H3C2.72386 4.5 2.5 4.72386 2.5 5V9.5L23.5 9.5V5C23.5 4.72386 23.2761 4.5 23 4.5ZM1 9.5V11V21C1 22.1046 1.89543 23 3 23H23C24.1046 23 25 22.1046 25 21V11V9.5V5C25 3.89543 24.1046 3 23 3H3C1.89543 3 1 3.89543 1 5V9.5ZM23.5 21V11L2.5 11V21C2.5 21.2761 2.72386 21.5 3 21.5H23C23.2761 21.5 23.5 21.2761 23.5 21ZM16.75 17.5C16.3358 17.5 16 17.8358 16 18.25C16 18.6642 16.3358 19 16.75 19L21.25 19C21.6642 19 22 18.6642 22 18.25C22 17.8358 21.6642 17.5 21.25 17.5L16.75 17.5Z" fill="white"/>
</svg>
