<svg width="26" height="26" viewBox="0 0 26 26" fill="none" xmlns="http://www.w3.org/2000/svg">
<path fill-rule="evenodd" clip-rule="evenodd" d="M22 2.5H4C3.17157 2.5 2.5 3.17157 2.5 4V6.25H23.5V4C23.5 3.17157 22.8284 2.5 22 2.5ZM2.5 22V7.75H23.5V22C23.5 22.8284 22.8284 23.5 22 23.5H4C3.17157 23.5 2.5 22.8284 2.5 22ZM4 1C2.34315 1 1 2.34315 1 4V22C1 23.6569 2.34315 25 4 25H22C23.6569 25 25 23.6569 25 22V4C25 2.34315 23.6569 1 22 1H4ZM5 10H10V15H5V10ZM4 10C4 9.44771 4.44772 9 5 9H10C10.5523 9 11 9.44772 11 10V15C11 15.5523 10.5523 16 10 16H5C4.44772 16 4 15.5523 4 15V10Z" fill="white"/>
</svg>
