<svg width="26" height="26" viewBox="0 0 26 26" fill="none" xmlns="http://www.w3.org/2000/svg">
<path fill-rule="evenodd" clip-rule="evenodd" d="M15.5 9.5V2.5H23.5V9.5H15.5ZM14 2C14 1.44772 14.4477 1 15 1H24C24.5523 1 25 1.44772 25 2V10C25 10.5523 24.5523 11 24 11H15C14.4477 11 14 10.5523 14 10V2ZM10.5 17.5L10.5 23.5H2.5L2.5 17.5H10.5ZM12 24C12 24.5523 11.5523 25 11 25H2C1.44771 25 1 24.5523 1 24V17C1 16.4477 1.44771 16 2 16L11 16C11.5523 16 12 16.4477 12 17L12 24ZM15.5 14.5V23.5H23.5V14.5H15.5ZM15 13C14.4477 13 14 13.4477 14 14V24C14 24.5523 14.4477 25 15 25H24C24.5523 25 25 24.5523 25 24V14C25 13.4477 24.5523 13 24 13H15ZM10.5 2.5L10.5 12.5L2.5 12.5L2.5 2.5L10.5 2.5ZM12 13C12 13.5523 11.5523 14 11 14L2 14C1.44771 14 1 13.5523 1 13V2C1 1.44771 1.44771 1 2 1H11C11.5523 1 12 1.44772 12 2L12 13Z" fill="white"/>
</svg>
