<svg width="26" height="26" viewBox="0 0 26 26" fill="none" xmlns="http://www.w3.org/2000/svg">
<path fill-rule="evenodd" clip-rule="evenodd" d="M15 1C14.4477 1 14 1.44772 14 2V10C14 10.5523 14.4477 11 15 11H24C24.5523 11 25 10.5523 25 10V2C25 1.44772 24.5523 1 24 1H15ZM11 25C11.5523 25 12 24.5523 12 24L12 17C12 16.4477 11.5523 16 11 16L2 16C1.44771 16 1 16.4477 1 17V24C1 24.5523 1.44771 25 2 25H11ZM14 14C14 13.4477 14.4477 13 15 13H24C24.5523 13 25 13.4477 25 14V24C25 24.5523 24.5523 25 24 25H15C14.4477 25 14 24.5523 14 24V14ZM11 14C11.5523 14 12 13.5523 12 13L12 2C12 1.44772 11.5523 1 11 1H2C1.44771 1 1 1.44771 1 2V13C1 13.5523 1.44771 14 2 14L11 14Z" fill="white"/>
</svg>
