<svg width="19" height="19" viewBox="0 0 19 19" fill="none" xmlns="http://www.w3.org/2000/svg">
<path d="M15.3333 2.5457H11.85C11.5 1.64934 10.5833 1.00024 9.5 1.00024C8.41667 1.00024 7.5 1.64934 7.15 2.5457H3.66667C2.75 2.5457 2 3.24115 2 4.09115V16.4548C2 17.3048 2.75 18.0002 3.66667 18.0002H15.3333C16.25 18.0002 17 17.3048 17 16.4548V4.09115C17 3.24115 16.25 2.5457 15.3333 2.5457ZM9.5 2.5457C9.95833 2.5457 10.3333 2.89343 10.3333 3.31843C10.3333 3.74343 9.95833 4.09115 9.5 4.09115C9.04167 4.09115 8.66667 3.74343 8.66667 3.31843C8.66667 2.89343 9.04167 2.5457 9.5 2.5457ZM15.3333 16.4548H3.66667V4.09115H5.33333V6.40933H13.6667V4.09115H15.3333V16.4548Z" fill="#808080"/>
</svg>
