<svg width="26" height="26" viewBox="0 0 26 26" fill="none" xmlns="http://www.w3.org/2000/svg">
<path fill-rule="evenodd" clip-rule="evenodd" d="M6.33316 3.02236C8.30655 1.70379 10.6266 1 13 1C16.1815 1.00363 19.2316 2.26908 21.4813 4.51873C23.7309 6.76838 24.9964 9.81851 25 13C25 15.3734 24.2962 17.6934 22.9776 19.6668C21.6591 21.6402 19.7849 23.1783 17.5922 24.0865C15.3995 24.9948 12.9867 25.2324 10.6589 24.7694C8.33115 24.3064 6.19295 23.1635 4.51472 21.4853C2.83649 19.807 1.6936 17.6689 1.23058 15.3411C0.767559 13.0133 1.0052 10.6005 1.91345 8.4078C2.8217 6.21508 4.35977 4.34094 6.33316 3.02236ZM18.5748 17.6642C19.3751 18.454 19.8332 19.5266 19.8503 20.6509H19.8511C21.4055 19.2629 22.5017 17.4356 22.9944 15.4109C23.4872 13.3861 23.3533 11.2594 22.6106 9.31245C21.8678 7.36546 20.5512 5.69 18.8351 4.50791C17.119 3.32583 15.0843 2.69288 13.0004 2.69288C10.9166 2.69288 8.88188 3.32583 7.16575 4.50791C5.44962 5.69 4.13301 7.36546 3.39027 9.31245C2.64752 11.2594 2.51367 13.3861 3.00643 15.4109C3.4992 17.4356 4.59535 19.2629 6.14972 20.6509C6.1668 19.5266 6.62487 18.454 7.42522 17.6642C8.22558 16.8744 9.30416 16.4307 10.4286 16.4286H15.5714C16.6958 16.4307 17.7744 16.8744 18.5748 17.6642ZM10.6195 6.8668C11.3243 6.39588 12.1529 6.14453 13.0006 6.14453C14.1372 6.14453 15.2273 6.59606 16.031 7.39979C16.8347 8.20352 17.2863 9.2936 17.2863 10.4302C17.2863 11.2779 17.0349 12.1065 16.564 12.8113C16.0931 13.516 15.4237 14.0654 14.6406 14.3897C13.8575 14.7141 12.9958 14.799 12.1645 14.6336C11.3331 14.4682 10.5695 14.0601 9.9701 13.4607C9.37074 12.8613 8.96256 12.0977 8.79719 11.2663C8.63183 10.435 8.7167 9.57329 9.04108 8.79017C9.36545 8.00706 9.91476 7.33772 10.6195 6.8668Z" fill="white"/>
</svg>
