<?xml version="1.0" encoding="utf-8"?>
<!-- Generator: Adobe Illustrator 24.0.1, SVG Export Plug-In . SVG Version: 6.00 Build 0)  -->
<svg version="1.1" id="Layer_1" xmlns="http://www.w3.org/2000/svg" xmlns:xlink="http://www.w3.org/1999/xlink" x="0px" y="0px"
	 viewBox="0 0 26 26" style="enable-background:new 0 0 26 26;" xml:space="preserve">
<style type="text/css">
	.st0{fill:#FFFFFF;}
</style>
<path class="st0" d="M25,13c0-0.3,0-0.6,0-0.9c0-0.1,0-0.2,0-0.3c0-0.1,0-0.1,0-0.2c-0.5-4.5-3.5-8.2-7.6-9.8C16,1.3,14.5,1,13,1
	c-1.5,0-2.9,0.3-4.2,0.8c-4.1,1.6-7.2,5.3-7.7,9.9c0,0,0,0.1,0,0.1c0,0.1,0,0.2,0,0.3c0,0.3,0,0.6,0,0.9c0,0,0,0,0,0s0,0,0,0
	c0,6.6,5.4,12,12,12S25,19.6,25,13C25,13,25,13,25,13C25,13,25,13,25,13z M10.4,16.4h5.1c1.1,0,2.2,0.4,3,1.2
	c0.7,0.7,1.1,1.6,1.2,2.6C18,22,15.6,23,13,23c-2.6,0-5-1-6.8-2.7c0.1-1,0.5-1.9,1.2-2.6C8.2,16.9,9.3,16.4,10.4,16.4z M9,8.8
	C9.4,8,9.9,7.3,10.6,6.9c0.7-0.5,1.5-0.7,2.4-0.7c1.1,0,2.2,0.5,3,1.3c0.8,0.8,1.3,1.9,1.3,3c0,0.9-0.3,1.7-0.7,2.4
	c-0.5,0.7-1.1,1.3-1.9,1.6c-0.8,0.3-1.6,0.4-2.5,0.2c-0.8-0.2-1.6-0.6-2.2-1.2c-0.6-0.6-1-1.4-1.2-2.2C8.6,10.4,8.7,9.6,9,8.8z"/>
</svg>
