<svg width="26" height="26" viewBox="0 0 26 26" fill="none" xmlns="http://www.w3.org/2000/svg">
<path fill-rule="evenodd" clip-rule="evenodd" d="M23 2.5H17V7C17 8.10457 16.1046 9 15 9H11C9.89543 9 9 8.10457 9 7V2.5H3C2.72386 2.5 2.5 2.72386 2.5 3V23C2.5 23.2761 2.72386 23.5 3 23.5H23C23.2761 23.5 23.5 23.2761 23.5 23V3C23.5 2.72386 23.2761 2.5 23 2.5ZM10.5 2.5H15.5V7C15.5 7.27614 15.2761 7.5 15 7.5H11C10.7239 7.5 10.5 7.27614 10.5 7V2.5ZM23 1H17H9H3C1.89543 1 1 1.89543 1 3V23C1 24.1046 1.89543 25 3 25H23C24.1046 25 25 24.1046 25 23V3C25 1.89543 24.1046 1 23 1ZM4.75 12C4.33579 12 4 12.3358 4 12.75C4 13.1642 4.33579 13.5 4.75 13.5H7.25C7.66421 13.5 8 13.1642 8 12.75C8 12.3358 7.66421 12 7.25 12H4.75ZM4 15.75C4 15.3358 4.33579 15 4.75 15H11.25C11.6642 15 12 15.3358 12 15.75C12 16.1642 11.6642 16.5 11.25 16.5H4.75C4.33579 16.5 4 16.1642 4 15.75ZM4.75 18C4.33579 18 4 18.3358 4 18.75C4 19.1642 4.33579 19.5 4.75 19.5H15.25C15.6642 19.5 16 19.1642 16 18.75C16 18.3358 15.6642 18 15.25 18H4.75Z" fill="white"/>
</svg>
