<svg width="26" height="26" viewBox="0 0 26 26" fill="none" xmlns="http://www.w3.org/2000/svg">
<path fill-rule="evenodd" clip-rule="evenodd" d="M1 3C1 1.89453 1.89453 1 3 1H9V7C9 8.10547 9.89453 9 11 9H15C16.1055 9 17 8.10547 17 7V1H23C23.6504 1 24.2285 1.3125 24.5938 1.79297C24.7129 1.94922 24.8086 2.125 24.877 2.3125C24.957 2.52734 25 2.75781 25 3V23C25 24.1055 24.1055 25 23 25H3C2.80664 25 2.61914 24.9727 2.44336 24.918C2.22852 24.8555 2.02734 24.7578 1.84766 24.6328C1.7207 24.5469 1.60547 24.4414 1.50195 24.3281C1.38086 24.1914 1.27734 24.0352 1.19727 23.8711L1.13281 23.7227C1.10156 23.6406 1.07422 23.5547 1.05273 23.4648C1.01758 23.3164 1 23.1602 1 23V3ZM15.5 2.5H10.5V7C10.5 7.27734 10.7246 7.5 11 7.5H15C15.166 7.5 15.3145 7.41797 15.4062 7.29297C15.4648 7.21094 15.5 7.10938 15.5 7V2.5ZM4.75 12C4.54688 12 4.36328 12.082 4.22852 12.2109C4.08789 12.3477 4 12.5391 4 12.75C4 13.1641 4.33594 13.5 4.75 13.5H7.25C7.66406 13.5 8 13.1641 8 12.75C8 12.3359 7.66406 12 7.25 12H4.75ZM4 15.75C4 15.3359 4.33594 15 4.75 15H11.25C11.6641 15 12 15.3359 12 15.75C12 15.9844 11.8926 16.1953 11.7246 16.332C11.5957 16.4375 11.4297 16.5 11.25 16.5H4.75C4.58398 16.5 4.42969 16.4453 4.30469 16.3516C4.20312 16.2773 4.12109 16.1758 4.06836 16.0586C4.02539 15.9648 4 15.8594 4 15.75ZM4.75 18C4.33594 18 4 18.3359 4 18.75C4 18.9961 4.11914 19.2148 4.30273 19.3516C4.42773 19.4453 4.58203 19.5 4.75 19.5H15.25C15.6641 19.5 16 19.1641 16 18.75C16 18.3359 15.6641 18 15.25 18H4.75Z" fill="white"/>
</svg>
