<?xml version="1.0" encoding="utf-8"?>
<!-- Generator: Adobe Illustrator 24.0.1, SVG Export Plug-In . SVG Version: 6.00 Build 0)  -->
<svg version="1.1" id="Layer_1" xmlns="http://www.w3.org/2000/svg" xmlns:xlink="http://www.w3.org/1999/xlink" x="0px" y="0px"
	 viewBox="0 0 26 26" style="enable-background:new 0 0 26 26;" xml:space="preserve">
<style type="text/css">
	.st0{fill:#FFFFFF;}
</style>
<g>
	<path class="st0" d="M24.9,11.8c-0.1-0.8-0.2-1.5-0.5-2.3l-0.2-0.6c0,0,0-0.1,0-0.1c0-0.1-0.1-0.2-0.1-0.2c0-0.1-0.1-0.1-0.1-0.2
		C24,8.2,23.9,8,23.8,7.8v0c-0.1-0.2-0.1-0.3-0.2-0.4c0,0,0,0,0,0c0,0,0,0,0,0v0c-0.1-0.1-0.2-0.3-0.3-0.4c0,0,0,0,0-0.1v0
		c-0.1-0.1-0.2-0.3-0.3-0.4c0,0,0,0,0-0.1c0,0,0,0,0,0c-0.1-0.1-0.1-0.1-0.2-0.2c0-0.1-0.1-0.1-0.2-0.2c0,0,0,0,0,0
		c-0.2-0.3-0.5-0.6-0.7-0.9c-0.1-0.1-0.2-0.3-0.4-0.4c-0.1-0.1-0.3-0.3-0.4-0.4c-0.6-0.5-1.2-1-1.9-1.4c-0.2-0.1-0.3-0.2-0.5-0.3
		c-0.3-0.2-0.7-0.4-1.1-0.5c-0.2-0.1-0.4-0.1-0.5-0.2l-0.6-0.2c-0.7-0.2-1.5-0.4-2.3-0.5C13.8,1,13.4,1,13,1c-0.3,0-0.6,0-0.8,0
		c0,0-0.1,0-0.1,0c-0.6,0-1.1,0.1-1.7,0.3c-0.3,0.1-0.6,0.1-0.9,0.2c-0.8,0.2-1.6,0.6-2.3,1C7.1,2.6,6.9,2.6,6.8,2.7
		C5.9,3.2,5.1,3.9,4.4,4.6C4.3,4.7,4.2,4.8,4.1,4.9C3.9,5.1,3.7,5.4,3.6,5.6C3.5,5.7,3.4,5.8,3.4,5.8C3.3,5.9,3.2,6,3.2,6.1
		c0,0-0.1,0.1-0.1,0.1c0,0-0.1,0.1-0.1,0.1C2.9,6.4,2.8,6.6,2.7,6.8C2.7,6.9,2.6,6.9,2.6,7C2.5,7.2,2.4,7.3,2.3,7.5
		C2.3,7.6,2.3,7.6,2.2,7.7c0,0,0,0.1,0,0.1C2.1,8,2,8.2,1.9,8.3c0,0,0,0.1,0,0.1c-0.2,0.5-0.4,1.1-0.6,1.7c0,0.2-0.1,0.4-0.1,0.6
		c0,0.2-0.1,0.4-0.1,0.5c0,0,0,0,0,0c0,0.2,0,0.4-0.1,0.5c0,0.2,0,0.3,0,0.5c0,0.2,0,0.5,0,0.7c0,0.3,0,0.5,0,0.8c0,0.2,0,0.3,0,0.5
		c0,0.4,0.1,0.8,0.2,1.2c0.2-0.3,0.5-0.6,0.8-0.7c0.2-0.1,0.5-0.1,0.8-0.1c0.1,0,0.2,0,0.3,0.1h0l0.5,0.2c0,0,0,0,0.1,0l0,0
		c0,0,0,0,0,0l0.1-0.5c0.1-0.4,0.3-0.7,0.6-0.9c0.3-0.2,0.6-0.4,1-0.4h2c0.4,0,0.7,0.1,1,0.4c0.3,0.2,0.5,0.6,0.6,0.9l0.1,0.5
		c0,0,0,0,0.1,0c0,0,0,0,0,0l0.6-0.2c0.4-0.1,0.7-0.1,1.1,0c0.3,0.1,0.6,0.4,0.8,0.7l0.6,1h3.2c1.1,0,2.2,0.4,3,1.2
		c0.7,0.7,1.2,1.6,1.3,2.6C18,22,15.6,23,13,23c-0.3,0-0.6,0-0.8,0l-0.4,0.7c-0.2,0.3-0.5,0.6-0.8,0.7c-0.3,0.1-0.7,0.1-1.1,0
		l-0.6-0.2c0,0,0,0-0.1,0l0,0.1v0c0.1,0,0.2,0.1,0.2,0.1c0.1,0,0.1,0,0.2,0.1c0.1,0,0.1,0,0.2,0.1c0.1,0,0.1,0,0.2,0
		c0.2,0.1,0.4,0.1,0.6,0.1c0,0,0.1,0,0.1,0c0.2,0,0.3,0.1,0.5,0.1c0.2,0,0.4,0.1,0.6,0.1c0.2,0,0.3,0,0.5,0h0.1c0.2,0,0.4,0,0.6,0
		c0.4,0,0.8,0,1.2-0.1c0.3,0,0.5-0.1,0.7-0.1c0.2,0,0.3-0.1,0.5-0.1c0.4-0.1,0.7-0.2,1.1-0.3c0,0,0.1,0,0.1,0c0.3-0.1,0.6-0.2,1-0.4
		c0.1,0,0.2-0.1,0.3-0.1c0.1-0.1,0.3-0.1,0.4-0.2c0,0,0,0,0,0c0,0,0,0,0,0c0.1,0,0.2-0.1,0.2-0.1c0.1,0,0.1-0.1,0.2-0.1
		c0.1,0,0.2-0.1,0.3-0.1c0.1-0.1,0.2-0.1,0.3-0.2c0.1-0.1,0.2-0.1,0.3-0.2c0,0,0.1-0.1,0.1-0.1c0,0,0.1-0.1,0.1-0.1
		c0.2-0.1,0.4-0.3,0.7-0.5c0,0,0,0,0,0c0,0,0,0,0.1,0c0.1-0.1,0.2-0.2,0.3-0.3c0,0,0.1-0.1,0.1-0.1c0.1-0.1,0.2-0.2,0.3-0.3
		c0,0,0,0,0.1-0.1c0,0,0.1-0.1,0.1-0.1c0.1-0.1,0.2-0.2,0.3-0.3v0h0c0,0,0,0,0,0c0,0,0.1-0.1,0.1-0.1c0.1-0.1,0.1-0.1,0.2-0.2
		c0,0,0,0,0.1-0.1v0c0.5-0.6,0.9-1.2,1.2-1.8c0.1-0.2,0.2-0.4,0.3-0.6c0,0,0,0,0-0.1c0.1-0.2,0.2-0.5,0.3-0.7c0,0,0-0.1,0.1-0.1
		c0.1-0.3,0.2-0.5,0.3-0.8c0.1-0.3,0.2-0.6,0.2-0.8c0.1-0.6,0.2-1.1,0.3-1.7c0,0,0-0.1,0-0.1c0-0.3,0-0.6,0-0.8
		C25,12.6,25,12.2,24.9,11.8z M16.6,12.8c-0.5,0.7-1.1,1.2-1.9,1.6c-0.8,0.3-1.6,0.4-2.5,0.2c-0.8-0.2-1.6-0.6-2.2-1.2
		c-0.6-0.6-1-1.4-1.2-2.2C8.6,10.4,8.7,9.6,9,8.8C9.4,8,9.9,7.3,10.6,6.9c0.7-0.5,1.5-0.7,2.4-0.7c1.1,0,2.2,0.4,3,1.3
		c0.8,0.8,1.3,1.9,1.3,3C17.3,11.3,17,12.1,16.6,12.8z"/>
	<path class="st0" d="M10.6,23.4c0.1,0,0.2-0.1,0.3-0.2l0.2-0.3l0.8-1.4c0.1-0.2,0.1-0.5-0.1-0.7L11,20c0-0.3,0-0.7,0-1l0.8-0.7
		c0.2-0.2,0.2-0.5,0.1-0.7l-0.7-1.2l-0.3-0.5c-0.1-0.1-0.2-0.2-0.3-0.2c-0.1,0-0.2-0.1-0.4,0l-1,0.3c-0.1-0.1-0.3-0.2-0.4-0.3
		c-0.1-0.1-0.3-0.2-0.5-0.2l-0.2-1c0-0.1-0.1-0.2-0.2-0.3C7.8,14,7.7,14,7.5,14H5.5c-0.1,0-0.3,0-0.4,0.1c-0.1,0.1-0.2,0.2-0.2,0.3
		l-0.2,1c-0.2,0.1-0.3,0.1-0.4,0.2c-0.1,0.1-0.3,0.2-0.4,0.3l-0.4-0.1l-0.3-0.1l-0.3-0.1c-0.1,0-0.3,0-0.4,0c-0.1,0-0.2,0.1-0.3,0.2
		l-0.5,0.8l0,0v0l-0.5,0.9C1,17.7,1,17.9,1,18c0,0.1,0.1,0.2,0.2,0.3L2,19c0,0.3,0,0.6,0,1l-0.8,0.7C1.1,20.8,1,20.9,1,21
		c0,0.1,0,0.2,0.1,0.4l1,1.7c0.1,0.1,0.2,0.2,0.3,0.2c0.1,0,0.2,0.1,0.4,0l1-0.3c0.3,0.2,0.6,0.4,0.9,0.5l0.2,1
		c0,0.1,0.1,0.2,0.2,0.3C5.2,25,5.3,25,5.5,25h2.1c0.1,0,0.2,0,0.4-0.1c0.1-0.1,0.2-0.2,0.2-0.3L8.2,24l0.1-0.5
		c0.3-0.1,0.6-0.3,0.9-0.5l1,0.3C10.4,23.4,10.5,23.4,10.6,23.4z M8.1,21.1c-0.1,0.1-0.3,0.3-0.5,0.4c-0.3,0.2-0.7,0.3-1.1,0.3
		c-0.6,0-1.2-0.2-1.6-0.6c-0.4-0.4-0.7-1-0.7-1.6c0-0.3,0.1-0.6,0.2-0.9c0-0.1,0.1-0.2,0.1-0.3c0.1-0.2,0.2-0.3,0.3-0.4
		c0.4-0.4,1-0.6,1.6-0.6c0.4,0,0.7,0.1,1.1,0.2c0.2,0.1,0.4,0.2,0.6,0.4c0.4,0.4,0.7,1,0.7,1.6C8.8,20.1,8.5,20.6,8.1,21.1z"/>
</g>
</svg>
