<svg width="26" height="26" viewBox="0 0 26 26" fill="none" xmlns="http://www.w3.org/2000/svg">
<path fill-rule="evenodd" clip-rule="evenodd" d="M13 1C10.6266 1 8.30655 1.70379 6.33316 3.02236C4.35977 4.34094 2.8217 6.21508 1.91345 8.4078C1.0052 10.6005 0.767559 13.0133 1.23058 15.3411L1.23994 15.3876L1.24225 15.3838C1.43426 15.061 1.73004 14.8183 2.07443 14.6889C2.32058 14.5964 2.58392 14.5645 2.84228 14.5935C2.56037 12.8204 2.74687 10.999 3.39027 9.31245C4.13301 7.36546 5.44962 5.69 7.16575 4.50791C8.88188 3.32583 10.9166 2.69288 13.0004 2.69288C15.0843 2.69288 17.119 3.32583 18.8351 4.50791C20.5512 5.69 21.8678 7.36546 22.6106 9.31245C23.3533 11.2594 23.4872 13.3861 22.9944 15.4109C22.5017 17.4356 21.4055 19.2629 19.8511 20.6509H19.8503C19.8332 19.5266 19.3751 18.454 18.5748 17.6642C17.7744 16.8744 16.6958 16.4307 15.5714 16.4286H12.3789L12.7769 17.0976C13.1712 17.7688 13.0296 18.6148 12.456 19.1262L12.4531 19.1288L12.05 19.4856V19.5177L12.4573 19.8782C13.0287 20.3892 13.1717 21.2336 12.7769 21.9056L12.7739 21.9107L11.7579 23.6184C11.5659 23.9412 11.2701 24.1839 10.9257 24.3133C10.5818 24.4425 10.2043 24.4535 9.85379 24.3451L9.30739 24.1763L9.26453 24.2006L9.23369 24.2178L9.19664 24.3813C9.67367 24.5407 10.162 24.6706 10.6589 24.7694C12.9867 25.2324 15.3995 24.9948 17.5922 24.0865C19.7849 23.1783 21.6591 21.6402 22.9776 19.6668C24.2962 17.6934 25 15.3734 25 13C24.9964 9.81851 23.7309 6.76838 21.4813 4.51873C19.2316 2.26908 16.1815 1.00363 13 1ZM7.54632 17.5493C7.22555 17.387 6.86635 17.3 6.49791 17.3C5.89652 17.3 5.31977 17.5318 4.89453 17.9444C4.6873 18.1454 4.52432 18.3814 4.41168 18.638C4.41916 18.6494 4.42667 18.6607 4.43419 18.6721C4.32336 18.9321 4.26472 19.2131 4.26472 19.5C4.26472 20.0746 4.49999 20.6257 4.91879 21.0321C5.33758 21.4384 5.90559 21.6667 6.49785 21.6667C7.09011 21.6667 7.65812 21.4384 8.07691 21.0321C8.49571 20.6257 8.73098 20.0746 8.73098 19.5C8.73098 18.9254 8.49571 18.3743 8.07691 17.9679C7.91187 17.8078 7.72366 17.6753 7.51992 17.5736C7.52869 17.5654 7.53749 17.5573 7.54632 17.5493ZM13.0006 6.14453C12.1529 6.14453 11.3243 6.39588 10.6195 6.8668C9.91476 7.33772 9.36545 8.00706 9.04108 8.79017C8.7167 9.57329 8.63183 10.435 8.79719 11.2663C8.96256 12.0977 9.37074 12.8613 9.9701 13.4607C10.5695 14.0601 11.3331 14.4682 12.1645 14.6336C12.9958 14.799 13.8575 14.7141 14.6406 14.3897C15.4237 14.0654 16.0931 13.516 16.564 12.8113C17.0349 12.1065 17.2863 11.2779 17.2863 10.4302C17.2863 9.2936 16.8347 8.20352 16.031 7.39979C15.2273 6.59606 14.1372 6.14453 13.0006 6.14453ZM5.46845 25H7.5319C7.66109 24.9999 7.78637 24.957 7.88698 24.8784C7.9876 24.7997 8.05753 24.6901 8.08517 24.5677L8.31929 23.5343C8.6269 23.4036 8.91856 23.2402 9.18889 23.0469L10.2303 23.3687C10.3535 23.4068 10.4865 23.4029 10.6072 23.3576C10.7278 23.3123 10.8288 23.2283 10.8935 23.1196L11.9252 21.3854C12.0567 21.1616 12.0114 20.8789 11.8158 20.704L11.008 19.989C11.0447 19.6651 11.0447 19.3382 11.008 19.0143L11.8158 18.2994C12.0114 18.125 12.0567 17.8417 11.9252 17.6179L10.8935 15.8837C10.8289 15.7751 10.7279 15.6912 10.6074 15.6459C10.4869 15.6006 10.354 15.5966 10.2308 15.6346L9.18889 15.9564C9.05851 15.8634 8.92302 15.7771 8.783 15.6984C8.63278 15.6131 8.47746 15.5367 8.31873 15.4685L8.08517 14.4328C8.05764 14.3103 7.98776 14.2006 7.88714 14.1219C7.78651 14.0431 7.66117 14.0001 7.5319 14H5.46845C5.33918 14.0001 5.21384 14.0431 5.11321 14.1219C5.01258 14.2006 4.94271 14.3103 4.91518 14.4328L4.68389 15.4679C4.5331 15.5312 4.38571 15.6021 4.24229 15.6803C4.09376 15.7639 3.94978 15.8562 3.81146 15.9552L2.7701 15.6335C2.64684 15.5954 2.51384 15.5993 2.39319 15.6446C2.27254 15.6899 2.1715 15.7739 2.10685 15.8827L1.07512 17.6168C1.011 17.7257 0.986908 17.8525 1.00679 17.9764C1.02666 18.1003 1.08934 18.214 1.18453 18.2988L1.99234 19.0121C1.9556 19.336 1.9556 19.6629 1.99234 19.9867L1.18453 20.7017C1.08947 20.7865 1.02688 20.9001 1.00701 21.0239C0.987134 21.1477 1.01115 21.2744 1.07512 21.3832L2.10911 23.1163C2.17377 23.225 2.27481 23.309 2.39546 23.3543C2.51611 23.3996 2.6491 23.4035 2.77237 23.3654L3.81373 23.0437C4.08426 23.237 4.3761 23.4007 4.68389 23.5315L4.91461 24.5677C4.94228 24.6902 5.01228 24.7999 5.11302 24.8785C5.21375 24.9572 5.33916 25 5.46845 25Z" fill="white"/>
</svg>
