<svg width="26" height="26" viewBox="0 0 26 26" fill="none" xmlns="http://www.w3.org/2000/svg">
<path fill-rule="evenodd" clip-rule="evenodd" d="M3 1C1.89543 1 1 1.89543 1 3V10C1 11.1046 1.89543 12 3 12H10C11.1046 12 12 11.1046 12 10V3C12 1.89543 11.1046 1 10 1H3ZM16 1C14.8954 1 14 1.89543 14 3V10C14 11.1046 14.8954 12 16 12H23C24.1046 12 25 11.1046 25 10V3C25 1.89543 24.1046 1 23 1H16ZM14 16C14 14.8954 14.8954 14 16 14H23C24.1046 14 25 14.8954 25 16V23C25 24.1046 24.1046 25 23 25H16C14.8954 25 14 24.1046 14 23V16ZM3 14C1.89543 14 1 14.8954 1 16V23C1 24.1046 1.89543 25 3 25H10C11.1046 25 12 24.1046 12 23V16C12 14.8954 11.1046 14 10 14H3Z" fill="white"/>
</svg>
