<svg width="26" height="26" viewBox="0 0 26 26" fill="none" xmlns="http://www.w3.org/2000/svg">
<path fill-rule="evenodd" clip-rule="evenodd" d="M3 2.5H10C10.2761 2.5 10.5 2.72386 10.5 3V10C10.5 10.2761 10.2761 10.5 10 10.5H3C2.72386 10.5 2.5 10.2761 2.5 10V3C2.5 2.72386 2.72386 2.5 3 2.5ZM1 3C1 1.89543 1.89543 1 3 1H10C11.1046 1 12 1.89543 12 3V10C12 11.1046 11.1046 12 10 12H3C1.89543 12 1 11.1046 1 10V3ZM16 2.5H23C23.2761 2.5 23.5 2.72386 23.5 3V10C23.5 10.2761 23.2761 10.5 23 10.5H16C15.7239 10.5 15.5 10.2761 15.5 10V3C15.5 2.72386 15.7239 2.5 16 2.5ZM14 3C14 1.89543 14.8954 1 16 1H23C24.1046 1 25 1.89543 25 3V10C25 11.1046 24.1046 12 23 12H16C14.8954 12 14 11.1046 14 10V3ZM23 15.5H16C15.7239 15.5 15.5 15.7239 15.5 16V23C15.5 23.2761 15.7239 23.5 16 23.5H23C23.2761 23.5 23.5 23.2761 23.5 23V16C23.5 15.7239 23.2761 15.5 23 15.5ZM16 14C14.8954 14 14 14.8954 14 16V23C14 24.1046 14.8954 25 16 25H23C24.1046 25 25 24.1046 25 23V16C25 14.8954 24.1046 14 23 14H16ZM3 15.5H10C10.2761 15.5 10.5 15.7239 10.5 16V23C10.5 23.2761 10.2761 23.5 10 23.5H3C2.72386 23.5 2.5 23.2761 2.5 23V16C2.5 15.7239 2.72386 15.5 3 15.5ZM1 16C1 14.8954 1.89543 14 3 14H10C11.1046 14 12 14.8954 12 16V23C12 24.1046 11.1046 25 10 25H3C1.89543 25 1 24.1046 1 23V16Z" fill="white"/>
</svg>
