<svg width="22" height="22" viewBox="0 0 22 22" fill="none" xmlns="http://www.w3.org/2000/svg">
<path fill-rule="evenodd" clip-rule="evenodd" d="M11 22C17.0751 22 22 17.0751 22 11C22 4.92487 17.0751 0 11 0C4.92487 0 0 4.92487 0 11C0 17.0751 4.92487 22 11 22ZM18.5597 7.17295C19.0478 6.68479 19.0478 5.89333 18.5597 5.40518C18.0715 4.91702 17.2801 4.91702 16.7919 5.40518L8.24721 13.9499L4.80966 10.5123C4.32151 10.0242 3.53005 10.0242 3.0419 10.5123C2.55374 11.0005 2.55374 11.7919 3.0419 12.2801L7.36333 16.6015C7.85148 17.0897 8.64294 17.0897 9.13109 16.6015L18.5597 7.17295Z" fill="white"/>
</svg>
