<svg width="21" height="21" viewBox="0 0 21 21" fill="none" xmlns="http://www.w3.org/2000/svg">
<path fill-rule="evenodd" clip-rule="evenodd" d="M13.864 1C14.1919 1 14.4578 1.24538 14.4578 1.54808V2.78125H18.4167C19.2911 2.78125 20 3.49013 20 4.36458V18.4167C20 19.2911 19.2911 20 18.4167 20H2.58333C1.70888 20 1 19.2911 1 18.4167V4.36458C1 3.49013 1.70888 2.78125 2.58333 2.78125H6.54224V1.54808C6.54224 1.24538 6.80807 1 7.13599 1C7.46391 1 7.72974 1.24538 7.72974 1.54808V2.78125H13.2703V1.54808C13.2703 1.24538 13.5361 1 13.864 1ZM6.54224 3.96875V5.20192C6.54224 5.50462 6.80807 5.75 7.13599 5.75C7.46391 5.75 7.72974 5.50462 7.72974 5.20192V3.96875H13.2703V5.20192C13.2703 5.50462 13.5361 5.75 13.864 5.75C14.1919 5.75 14.4578 5.50462 14.4578 5.20192V3.96875H18.4167C18.6353 3.96875 18.8125 4.14597 18.8125 4.36458V6.7406H2.1875V4.36458C2.1875 4.14597 2.36472 3.96875 2.58333 3.96875H6.54224ZM18.8125 7.9281H2.1875V18.4167C2.1875 18.6353 2.36472 18.8125 2.58333 18.8125H18.4167C18.6353 18.8125 18.8125 18.6353 18.8125 18.4167V7.9281ZM15.2476 9.70447H16.4351V10.892H15.2476V9.70447ZM13.6648 9.70447H12.4773V10.892H13.6648V9.70447ZM9.70703 9.70447H10.8945V10.892H9.70703V9.70447ZM8.12256 9.70447H6.93506V10.892H8.12256V9.70447ZM4.16479 9.70447H5.35229V10.892H4.16479V9.70447ZM16.4351 12.4788H15.2476V13.6663H16.4351V12.4788ZM12.4773 12.4788H13.6648V13.6663H12.4773V12.4788ZM10.8945 12.4788H9.70703V13.6663H10.8945V12.4788ZM6.93506 12.4788H8.12256V13.6663H6.93506V12.4788ZM5.35229 12.4788H4.16479V13.6663H5.35229V12.4788ZM15.2476 15.2491H16.4351V16.4366H15.2476V15.2491ZM13.6648 15.2491H12.4773V16.4366H13.6648V15.2491ZM9.70703 15.2491H10.8945V16.4366H9.70703V15.2491ZM8.12256 15.2491H6.93506V16.4366H8.12256V15.2491ZM4.16479 15.2491H5.35229V16.4366H4.16479V15.2491Z" fill="#808080"/>
</svg>
