<svg width="151" height="148" viewBox="0 0 151 148" fill="none" xmlns="http://www.w3.org/2000/svg">
<path d="M26.9655 125.166V83.5778H54.7359L54.0204 71.3993L56.8041 60.9574H26.9655V22.7862H67.0112L73.0371 0.210571H71.1477H17.2727C12.6917 0.210571 8.2983 2.03427 5.05905 5.28049C1.8198 8.52671 0 12.9295 0 17.5204V130.499C0 135.09 1.8198 139.493 5.05905 142.739C8.2983 145.985 12.6917 147.809 17.2727 147.809H58.5482L57.229 125.166H26.9655Z" fill="#DE222A"/>
<path d="M146.839 48.5997C144.852 41.4955 141.73 34.7608 137.594 28.6569C133.473 22.6626 128.352 17.4248 122.456 13.1733C116.111 8.64048 109.094 5.13573 101.662 2.78744C98.8144 1.83197 95.9094 1.05736 92.9644 0.468253C92.506 0.367419 92.0365 0.288998 91.5781 0.210571L92.9867 25.2062L93.3445 25.3406C97.6672 27.0536 101.725 29.3735 105.396 32.2309C108.967 35.024 112.04 38.403 114.485 42.2247C117.079 46.3247 119.01 50.8091 120.209 55.5124C121.611 60.9832 122.295 66.6139 122.244 72.262C122.244 84.1081 120.224 93.8181 116.185 101.392C112.217 108.931 105.977 115.024 98.353 118.802C93.6274 121.066 88.6183 122.679 83.4616 123.598L77.1562 147.764C79.8841 147.495 82.5113 147.204 84.982 146.812C86.8491 146.532 88.6713 146.207 90.4489 145.871C95.8291 144.832 101.11 143.333 106.235 141.389C113.265 138.794 119.827 135.07 125.665 130.365C131.048 125.992 135.659 120.743 139.304 114.836C142.966 108.791 145.674 102.216 147.331 95.3418C149.146 87.8643 150.044 80.1927 150.003 72.4973C150.063 64.4227 148.998 56.3792 146.839 48.5997V48.5997Z" fill="#247BA0"/>
</svg>
