<svg width="21" height="21" viewBox="0 0 21 21" fill="none" xmlns="http://www.w3.org/2000/svg">
<path fill-rule="evenodd" clip-rule="evenodd" d="M10.9698 1.19413C10.7109 0.935289 10.2913 0.935289 10.0324 1.19413L6.49742 4.72912C6.23857 4.98797 6.23857 5.40764 6.49742 5.66648C6.75626 5.92532 7.17593 5.92532 7.43477 5.66648L9.83827 3.26298V14.0353C9.83827 14.4013 10.135 14.6981 10.5011 14.6981C10.8671 14.6981 11.1639 14.4013 11.1639 14.0353V3.26298L13.5674 5.66648C13.8262 5.92532 14.2459 5.92532 14.5048 5.66648C14.7636 5.40764 14.7636 4.98797 14.5048 4.72912L10.9698 1.19413ZM2.32562 13.5037C2.32562 13.1565 2.02887 12.875 1.66281 12.875C1.29675 12.875 1 13.1565 1 13.5037V17.6949C1 18.968 2.08809 20 3.43031 20H17.5703C18.9125 20 20.0006 18.968 20.0006 17.6949V13.5037C20.0006 13.1565 19.7038 12.875 19.3378 12.875C18.9717 12.875 18.675 13.1565 18.675 13.5037V17.6949C18.675 18.2735 18.1804 18.7426 17.5703 18.7426H3.43031C2.82021 18.7426 2.32562 18.2735 2.32562 17.6949V13.5037Z" fill="#808080"/>
</svg>
