<svg width="18" height="13" viewBox="0 0 18 13" fill="none" xmlns="http://www.w3.org/2000/svg">
<path fill-rule="evenodd" clip-rule="evenodd" d="M9 1C12.6891 1 15.823 3.30265 16.9363 6.5C15.823 9.69735 12.6891 12 9 12C5.31002 12 2.17698 9.69738 1.06365 6.5C2.17698 3.30262 5.31002 1 9 1ZM9 13C13.2124 13 16.7778 10.3297 17.9762 6.6498C18.0079 6.55228 18.0079 6.44772 17.9762 6.3502C16.7778 2.67033 13.2124 0 9 0C4.78673 0 1.22214 2.67035 0.0238167 6.3502C-0.0079389 6.44772 -0.0079389 6.55228 0.0238167 6.6498C1.22214 10.3296 4.78673 13 9 13ZM10.5189 7.96556C10.1161 8.35403 9.56971 8.57227 9.00001 8.57227C8.4303 8.57227 7.88393 8.35403 7.48109 7.96556C7.07824 7.57709 6.85193 7.05021 6.85193 6.50084C6.85193 5.95146 7.07824 5.42458 7.48109 5.03612C7.88393 4.64765 8.4303 4.42941 9.00001 4.42941C9.56971 4.42941 10.1161 4.64765 10.5189 5.03612C10.9218 5.42458 11.1481 5.95146 11.1481 6.50084C11.1481 7.05021 10.9218 7.57709 10.5189 7.96556ZM9.00001 9.57227C9.84474 9.57227 10.6549 9.24867 11.2522 8.67267C11.8495 8.09666 12.1851 7.31543 12.1851 6.50084C12.1851 5.68624 11.8495 4.90501 11.2522 4.32901C10.6549 3.753 9.84474 3.42941 9.00001 3.42941C8.15527 3.42941 7.34513 3.753 6.74781 4.32901C6.1505 4.90501 5.81493 5.68624 5.81493 6.50084C5.81493 7.31543 6.1505 8.09666 6.74781 8.67267C7.34513 9.24867 8.15527 9.57227 9.00001 9.57227Z" fill="#808080"/>
</svg>
