<svg width="18" height="17" viewBox="0 0 18 17" fill="none" xmlns="http://www.w3.org/2000/svg">
<path fill-rule="evenodd" clip-rule="evenodd" d="M17.3697 16.8536C17.174 17.0488 16.8568 17.0488 16.6612 16.8536L13.7436 13.9415C12.3068 14.7811 10.6694 15.2244 8.99966 15.2222C4.78658 15.2221 1.22223 12.4583 0.0230443 8.64991C-0.0077443 8.55212 -0.00768124 8.44726 0.0232278 8.34951C0.623264 6.45197 1.80862 4.79831 3.40216 3.62005L0.630325 0.853552C0.434688 0.65829 0.434688 0.341709 0.630325 0.146446C0.825965 -0.0488148 1.14316 -0.0488148 1.3388 0.146446L11.2441 10.0317C11.2501 10.0377 11.2559 10.0439 11.2616 10.0501L17.3697 16.1464C17.5653 16.3417 17.5653 16.6583 17.3697 16.8536ZM13.0082 13.2076L10.8612 11.0647C10.3234 11.4534 9.67291 11.6664 9.00044 11.6664C8.15891 11.6664 7.35184 11.3328 6.75679 10.7389C6.16174 10.145 5.82744 9.33947 5.82744 8.49956C5.82744 7.82839 6.04091 7.17919 6.43031 6.64237L4.11939 4.3359C2.67708 5.36333 1.59401 6.82011 1.02775 8.5003C2.14495 11.8264 5.29255 14.2222 9 14.2222C10.4032 14.2241 11.7815 13.8737 13.0082 13.2076ZM7.15211 7.36278C6.94281 7.7018 6.82937 8.09484 6.82937 8.49956C6.82937 9.07425 7.05811 9.62541 7.46526 10.0318C7.87242 10.4382 8.42464 10.6664 9.00044 10.6664C9.40594 10.6664 9.79974 10.5532 10.1394 10.3443L7.15211 7.36278ZM7.46521 6.26017C7.46523 6.26019 7.46519 6.26015 7.46521 6.26017ZM15.8046 11.591C15.584 11.4243 15.5406 11.1107 15.7077 10.8906C16.2565 10.1672 16.6836 9.35971 16.9723 8.49999C15.8552 5.17375 12.7076 2.77778 9 2.77778C8.47108 2.77738 7.94291 2.82654 7.4232 2.92463C7.15134 2.97593 6.88928 2.79757 6.83787 2.52623C6.78647 2.2549 6.96518 1.99335 7.23703 1.94204C7.81837 1.83232 8.40874 1.77733 9.00038 1.77778C9.00051 1.77778 9.00025 1.77778 9.00038 1.77778C13.2134 1.77794 16.7778 4.54168 17.977 8.35009C18.0077 8.44769 18.0077 8.55235 17.9769 8.64995C17.654 9.67529 17.1565 10.6375 16.5064 11.4943C16.3394 11.7144 16.0251 11.7578 15.8046 11.591Z" fill="#808080"/>
</svg>
