<svg width="21" height="21" viewBox="0 0 21 21" fill="none" xmlns="http://www.w3.org/2000/svg">
<path fill-rule="evenodd" clip-rule="evenodd" d="M14.8327 2.5H6.16602C5.88987 2.5 5.66602 2.72386 5.66602 3V4.64583H15.3327V3C15.3327 2.72386 15.1088 2.5 14.8327 2.5ZM6.16602 1C5.06145 1 4.16602 1.89543 4.16602 3V4.95703H2.58333C1.70888 4.95703 1 5.66591 1 6.54036V14.457C1 15.3315 1.70888 16.0404 2.58333 16.0404L4.16602 16.0404V18.4154C4.16602 19.2898 4.8749 19.9987 5.74935 19.9987H15.2493C16.1238 19.9987 16.8327 19.2898 16.8327 18.4154V16.0404L18.4167 16.0404C19.2911 16.0404 20 15.3315 20 14.457V6.54036C20 5.66591 19.2911 4.95703 18.4167 4.95703H16.8327V3C16.8327 1.89543 15.9373 1 14.8327 1H6.16602ZM16.8327 14.8529L18.4167 14.8529C18.6353 14.8529 18.8125 14.6756 18.8125 14.457V6.54036C18.8125 6.32175 18.6353 6.14453 18.4167 6.14453H15.7013C15.6827 6.1454 15.664 6.14583 15.6452 6.14583H4.95768C4.94231 6.14583 4.92704 6.1454 4.91189 6.14453H2.58333C2.36472 6.14453 2.1875 6.32175 2.1875 6.54036V14.457C2.1875 14.6756 2.36472 14.8529 2.58333 14.8529L4.16602 14.8529V12.4779C4.16602 11.6034 4.8749 10.8945 5.74935 10.8945H15.2493C16.1238 10.8945 16.8327 11.6034 16.8327 12.4779V14.8529ZM5.66602 14.8529V12.4779C5.66602 12.4318 5.70333 12.3945 5.74935 12.3945H15.2493C15.2954 12.3945 15.3327 12.4318 15.3327 12.4779V14.8529V16.0404V18.4154C15.3327 18.4614 15.2954 18.4987 15.2493 18.4987H5.74935C5.70333 18.4987 5.66602 18.4614 5.66602 18.4154V16.0404V14.8529Z" fill="#808080"/>
</svg>
