<svg width="20" height="20" viewBox="0 0 20 20" fill="none" xmlns="http://www.w3.org/2000/svg">
<path fill-rule="evenodd" clip-rule="evenodd" d="M13.375 7.75C13.375 10.8566 10.8566 13.375 7.75 13.375C4.6434 13.375 2.125 10.8566 2.125 7.75C2.125 4.6434 4.6434 2.125 7.75 2.125C10.8566 2.125 13.375 4.6434 13.375 7.75ZM12.1087 12.9042C10.9327 13.8997 9.41146 14.5 7.75 14.5C4.02208 14.5 1 11.4779 1 7.75C1 4.02208 4.02208 1 7.75 1C11.4779 1 14.5 4.02208 14.5 7.75C14.5 9.41146 13.8997 10.9327 12.9042 12.1087L18.8352 18.0398C19.0549 18.2594 19.0549 18.6156 18.8352 18.8352C18.6156 19.0549 18.2594 19.0549 18.0398 18.8352L12.1087 12.9042Z" fill="white"/>
</svg>
