<svg width="83" height="79" viewBox="0 0 83 79" fill="none" xmlns="http://www.w3.org/2000/svg">
<path fill-rule="evenodd" clip-rule="evenodd" d="M82.5 15C82.5 23.2843 75.7843 30 67.5 30C59.2157 30 52.5 23.2843 52.5 15C52.5 6.71573 59.2157 0 67.5 0C75.7843 0 82.5 6.71573 82.5 15ZM77.6639 7.51551C78.2497 8.1013 78.2497 9.05105 77.6639 9.63683L64.8068 22.494C64.221 23.0798 63.2713 23.0798 62.6855 22.494L56.7926 16.6011C56.2068 16.0153 56.2068 15.0656 56.7926 14.4798C57.3784 13.894 58.3281 13.894 58.9139 14.4798L63.7461 19.312L75.5426 7.51551C76.1284 6.92973 77.0781 6.92973 77.6639 7.51551ZM4.16668 11.6699H49.8074C49.6056 12.7491 49.5 13.8622 49.5 15C49.5 16.7361 49.7458 18.4148 50.2045 20.0032H4.16668V11.6699ZM4.16668 24.17H52.0077C55.1434 29.4563 60.9079 33 67.5 33C69.2207 33 70.885 32.7586 72.4608 32.3077L75 45.0032V53.3365H70.8333V78.3365H62.5V53.3365H45.8332V78.3365H4.16668V53.3365H0V45.0032L4.16668 24.17ZM37.5 70.0032H12.5V53.3365H37.5V70.0032Z" fill="#247BA0"/>
</svg>
