<svg width="26" height="26" viewBox="0 0 26 26" fill="none" xmlns="http://www.w3.org/2000/svg">
<path d="M24.86 12.4389L22.52 9.32035C22.4507 9.2188 22.3586 9.13458 22.2511 9.07427C22.1435 9.01396 22.0233 8.97921 21.9 8.97274H18.9V5.72508C18.8948 5.53099 18.8135 5.34659 18.6734 5.21117C18.5333 5.07575 18.3455 5 18.15 5.00007H1.76C1.56278 4.99739 1.37244 5.07197 1.23019 5.20767C1.08794 5.34337 1.00524 5.52926 1 5.72508V16.9181C1.00524 17.1139 1.08794 17.2998 1.23019 17.4355C1.37244 17.5712 1.56278 17.6458 1.76 17.6431H3.76C3.70822 17.841 3.68135 18.0445 3.68 18.2489C3.70591 18.9586 4.00809 19.6305 4.52291 20.1233C5.03773 20.6161 5.725 20.8912 6.44 20.8908C7.17033 20.9041 7.8762 20.6293 8.40291 20.1267C8.92963 19.624 9.23424 18.9345 9.25 18.2092C9.25202 18.0052 9.22851 17.8017 9.18 17.6034H16.82C16.7715 17.8017 16.748 18.0052 16.75 18.2092C16.75 18.9494 17.0461 19.6592 17.573 20.1826C18.1 20.706 18.8147 21 19.56 21C20.3053 21 21.02 20.706 21.547 20.1826C22.0739 19.6592 22.37 18.9494 22.37 18.2092C22.3693 18.0047 22.3424 17.8011 22.29 17.6034H24.24C24.4307 17.6065 24.6154 17.5374 24.7565 17.4101C24.8977 17.2828 24.9848 17.1069 25 16.9181V12.9454C25.0177 12.7652 24.9679 12.5848 24.86 12.4389V12.4389ZM6.44 19.3911C6.19504 19.3811 5.95857 19.2992 5.76047 19.1557C5.56236 19.0123 5.41152 18.8137 5.32699 18.5852C5.24247 18.3566 5.22806 18.1083 5.28559 17.8716C5.34311 17.6349 5.46999 17.4205 5.65019 17.2554C5.83039 17.0903 6.05583 16.9819 6.298 16.9441C6.54018 16.9062 6.78823 16.9404 7.01081 17.0425C7.23339 17.1446 7.4205 17.3099 7.54851 17.5176C7.67652 17.7252 7.73968 17.9659 7.73 18.2092C7.72741 18.3744 7.6919 18.5374 7.62554 18.6889C7.55917 18.8404 7.46326 18.9774 7.34333 19.0919C7.2234 19.2064 7.08183 19.2961 6.92679 19.356C6.77175 19.4159 6.6063 19.4447 6.44 19.4407V19.3911ZM19.56 19.3911C19.3166 19.3833 19.0809 19.3045 18.8823 19.1645C18.6837 19.0245 18.5311 18.8296 18.4433 18.6039C18.3556 18.3783 18.3366 18.1321 18.3889 17.8959C18.4412 17.6596 18.5623 17.4439 18.7372 17.2756C18.9121 17.1074 19.133 16.994 19.3724 16.9496C19.6118 16.9052 19.859 16.9318 20.0833 17.026C20.3076 17.1203 20.4989 17.2781 20.6335 17.4796C20.768 17.6812 20.8399 17.9177 20.84 18.1595C20.8441 18.3281 20.8138 18.4956 20.751 18.6523C20.6883 18.8089 20.5943 18.9513 20.4748 19.0709C20.3552 19.1906 20.2126 19.285 20.0554 19.3486C19.8982 19.4121 19.7297 19.4435 19.56 19.4407V19.3911ZM18.88 12.8163V10.1943H21.88L23.88 12.866L18.88 12.8163Z" fill="white"/>
</svg>
