<svg width="26" height="26" viewBox="0 0 26 26" fill="none" xmlns="http://www.w3.org/2000/svg">
<path fill-rule="evenodd" clip-rule="evenodd" d="M1 5.72992C1 5.3268 1.3407 5 1.76098 5H18.1512C18.5715 5 18.9122 5.3268 18.9122 5.72992V9.04262H21.8976C22.1433 9.04262 22.3739 9.15646 22.5168 9.34828L24.8583 12.4925C24.9504 12.6163 25 12.7647 25 12.9168V16.9594C25 17.3625 24.6593 17.6893 24.239 17.6893H22.3659C22.3407 17.6893 22.3158 17.6882 22.2912 17.6859C22.3399 17.8845 22.3656 18.0916 22.3656 18.3045C22.3656 19.7929 21.1076 20.9995 19.5558 20.9995C18.0041 20.9995 16.7461 19.7929 16.7461 18.3045C16.7461 18.0928 16.7715 17.8869 16.8196 17.6893H9.17881C9.2269 17.8869 9.25233 18.0928 9.25233 18.3045C9.25233 19.7929 7.99435 20.9995 6.44257 20.9995C4.89078 20.9995 3.63281 19.7929 3.63281 18.3045C3.63281 18.0928 3.65824 17.8869 3.70633 17.6893H1.76098C1.3407 17.6893 1 17.3625 1 16.9594V5.72992ZM4.64507 16.2329C5.13224 15.8436 5.75889 15.6094 6.44257 15.6094C7.12638 15.6094 7.75314 15.8437 8.24035 16.2332C8.26558 16.2307 8.29118 16.2295 8.31707 16.2295H17.3902V6.45983H2.52195V16.2295H4.57073C4.59581 16.2295 4.62061 16.2307 4.64507 16.2329ZM19.5558 19.5397C20.2671 19.5397 20.8437 18.9867 20.8437 18.3045C20.8437 17.6222 20.2671 17.0692 19.5558 17.0692C18.8446 17.0692 18.268 17.6222 18.268 18.3045C18.268 18.9867 18.8446 19.5397 19.5558 19.5397ZM7.73037 18.3045C7.73037 18.9867 7.1538 19.5397 6.44257 19.5397C5.73133 19.5397 5.15476 18.9867 5.15476 18.3045C5.15476 17.6222 5.73133 17.0692 6.44257 17.0692C7.1538 17.0692 7.73037 17.6222 7.73037 18.3045ZM23.898 12.9216L21.8951 10.2266H18.8828V12.9216H23.898Z" fill="white"/>
</svg>
