<svg width="26" height="26" viewBox="0 0 26 26" fill="none" xmlns="http://www.w3.org/2000/svg">
<path fill-rule="evenodd" clip-rule="evenodd" d="M1 4C1 2.34315 2.34315 1 4 1H22C23.6569 1 25 2.34315 25 4V22C25 23.6569 23.6569 25 22 25H4C2.34315 25 1 23.6569 1 22V4ZM13.7487 4.5C13.7487 4.08579 13.413 3.75 12.9987 3.75C12.5845 3.75 12.2487 4.08579 12.2487 4.5V5.74413C10.7353 5.89879 9.70373 6.52366 9.06258 7.36557C8.3587 8.28984 8.19997 9.3788 8.26648 10.1296C8.27635 10.7905 8.54513 11.6917 9.27917 12.4356C10.0441 13.2107 11.2472 13.7491 13.0013 13.7491C14.4142 13.7491 15.2478 14.2441 15.6736 14.8338C16.1066 15.4336 16.213 16.2607 15.9163 17.1142C15.5202 18.2534 14.4841 18.7815 12.9964 18.7912C12.261 18.796 11.4574 18.4401 10.8009 17.9152C10.4789 17.6578 10.2157 17.3777 10.0322 17.1175C9.84027 16.8452 9.77234 16.6476 9.76163 16.5509C9.71597 16.1392 9.34521 15.8425 8.93353 15.8882C8.52184 15.9338 8.22511 16.3046 8.27077 16.7163C8.32051 17.1648 8.54043 17.6048 8.80634 17.9819C9.08072 18.371 9.44542 18.752 9.86413 19.0868C10.5112 19.6041 11.3453 20.0559 12.2487 20.2227V21.5C12.2487 21.9142 12.5845 22.25 12.9987 22.25C13.413 22.25 13.7487 21.9142 13.7487 21.5V20.2468C15.297 20.0671 16.7368 19.3216 17.3331 17.6068C17.7642 16.3668 17.6532 15.0132 16.8897 13.9557C16.119 12.8881 14.777 12.2491 13.0013 12.2491C11.567 12.2491 10.7774 11.8183 10.3469 11.382C9.89967 10.9288 9.76615 10.3968 9.7662 10.0917C9.7662 10.0668 9.76497 10.0419 9.7625 10.0171C9.71667 9.55736 9.81796 8.84947 10.2559 8.27436C10.6669 7.73471 11.4542 7.20703 13.0013 7.20703C14.5765 7.20703 15.3697 7.69408 15.7709 8.16813C16.192 8.66582 16.2829 9.26774 16.241 9.64551C16.1954 10.0572 16.4922 10.4279 16.9039 10.4735C17.3156 10.5191 17.6863 10.2223 17.7319 9.81064C17.8108 9.09806 17.6481 8.06446 16.9159 7.19921C16.267 6.43232 15.2403 5.878 13.7487 5.7403V4.5Z" fill="white"/>
</svg>
