<svg width="26" height="26" viewBox="0 0 26 26" fill="none" xmlns="http://www.w3.org/2000/svg">
<path fill-rule="evenodd" clip-rule="evenodd" d="M4 2.5H22C22.8284 2.5 23.5 3.17157 23.5 4V22C23.5 22.8284 22.8284 23.5 22 23.5H4C3.17157 23.5 2.5 22.8284 2.5 22V4C2.5 3.17157 3.17157 2.5 4 2.5ZM1 4C1 2.34315 2.34315 1 4 1H22C23.6569 1 25 2.34315 25 4V22C25 23.6569 23.6569 25 22 25H4C2.34315 25 1 23.6569 1 22V4ZM13.7507 4.5C13.7507 4.08579 13.4149 3.75 13.0007 3.75C12.5865 3.75 12.2507 4.08579 12.2507 4.5V5.74413C10.7373 5.89879 9.70568 6.52366 9.06453 7.36557C8.36065 8.28984 8.20193 9.3788 8.26843 10.1296C8.2783 10.7905 8.54708 11.6917 9.28112 12.4356C10.0461 13.2107 11.2492 13.7491 13.0033 13.7491C14.4161 13.7491 15.2498 14.2441 15.6755 14.8338C16.1086 15.4336 16.215 16.2607 15.9182 17.1142C15.5221 18.2534 14.4861 18.7815 12.9984 18.7912C12.2629 18.796 11.4593 18.4401 10.8028 17.9152C10.4809 17.6578 10.2177 17.3777 10.0342 17.1175C9.84222 16.8452 9.7743 16.6476 9.76358 16.5509C9.71792 16.1392 9.34717 15.8425 8.93548 15.8882C8.52379 15.9338 8.22706 16.3046 8.27272 16.7163C8.32247 17.1648 8.54238 17.6048 8.80829 17.9819C9.08267 18.371 9.44737 18.752 9.86608 19.0868C10.5132 19.6041 11.3472 20.0559 12.2507 20.2227V21.5C12.2507 21.9142 12.5865 22.25 13.0007 22.25C13.4149 22.25 13.7507 21.9142 13.7507 21.5V20.2468C15.299 20.0671 16.7388 19.3216 17.335 17.6068C17.7662 16.3668 17.6552 15.0132 16.8917 13.9557C16.1209 12.8881 14.7789 12.2491 13.0033 12.2491C11.5689 12.2491 10.7794 11.8183 10.3488 11.382C9.90162 10.9288 9.7681 10.3968 9.76815 10.0917C9.76816 10.0668 9.76692 10.0419 9.76445 10.0171C9.71862 9.55736 9.81991 8.84947 10.2579 8.27436C10.6689 7.73471 11.4561 7.20703 13.0033 7.20703C14.5784 7.20703 15.3717 7.69408 15.7728 8.16813C16.1939 8.66582 16.2848 9.26774 16.243 9.64551C16.1974 10.0572 16.4942 10.4279 16.9059 10.4735C17.3175 10.5191 17.6883 10.2223 17.7339 9.81064C17.8128 9.09806 17.65 8.06446 16.9179 7.19921C16.269 6.43232 15.2423 5.878 13.7507 5.7403V4.5Z" fill="white"/>
</svg>
