<?xml version="1.0" standalone="no"?>
<!DOCTYPE svg PUBLIC "-//W3C//DTD SVG 20010904//EN"
 "http://www.w3.org/TR/2001/REC-SVG-20010904/DTD/svg10.dtd">
<svg version="1.0" xmlns="http://www.w3.org/2000/svg"
 width="237.000000pt" height="213.000000pt" viewBox="0 0 237.000000 213.000000"
 preserveAspectRatio="xMidYMid meet">

<g transform="translate(0.000000,213.000000) scale(0.100000,-0.100000)"
fill="#000000" stroke="none">
<path d="M1790 1560 c-18 -12 -12 -13 65 -11 46 1 69 -4 99 -21 62 -36 73 -69
90 -278 9 -102 25 -286 36 -410 11 -123 20 -244 20 -268 0 -53 -20 -94 -60
-122 -37 -27 -51 -28 -590 -75 -223 -20 -506 -44 -630 -55 -124 -11 -252 -20
-286 -20 -57 0 -65 3 -103 38 -49 43 -51 53 -76 347 -9 99 -23 261 -31 360
-21 246 -21 266 2 305 28 49 71 70 153 77 41 3 76 12 82 19 6 8 10 14 7 14 -2
0 -42 -5 -88 -11 -104 -12 -148 -38 -180 -104 -22 -45 -22 -51 -11 -168 11
-128 32 -370 51 -597 7 -74 16 -152 21 -173 14 -54 70 -112 119 -125 39 -10
347 0 422 13 49 8 312 35 398 41 395 24 663 53 727 79 17 8 46 32 62 56 28 38
31 49 31 116 0 71 -37 526 -61 754 -13 125 -35 173 -94 206 -43 24 -146 32
-175 13z"/>
<path d="M1400 1534 c-674 -61 -804 -74 -814 -84 -13 -13 3 -13 209 5 524 47
961 85 968 85 5 0 5 5 2 10 -8 13 -55 11 -365 -16z"/>
<path d="M1852 1512 c-9 -6 -5 -14 15 -28 16 -11 36 -23 46 -27 19 -7 23 -32
7 -42 -12 -8 -42 14 -35 25 2 4 -13 21 -35 39 l-39 31 -118 -10 c-133 -11
-549 -47 -633 -55 -30 -3 -161 -14 -290 -26 l-235 -21 -41 -36 c-23 -21 -43
-46 -45 -57 -5 -25 -32 -27 -37 -3 -2 11 5 21 20 27 13 5 36 23 52 39 l28 30
-43 -5 c-89 -12 -129 -53 -129 -135 0 -24 7 -110 15 -193 14 -145 37 -405 51
-570 8 -96 24 -130 69 -152 36 -17 41 -17 590 32 244 22 600 53 745 65 69 5
139 12 157 15 44 8 91 49 98 88 4 18 -5 160 -19 317 -14 157 -31 344 -37 415
-13 149 -24 190 -59 216 -30 22 -80 33 -98 21z m-196 -174 c-3 -13 -6 -26 -6
-30 0 -5 -4 -8 -10 -8 -5 0 -10 14 -10 30 0 21 5 30 16 30 12 0 15 -6 10 -22z
m-456 -15 c0 -16 -7 -53 -15 -83 -8 -30 -15 -56 -15 -58 0 -1 19 0 43 3 l42 5
-30 -14 c-16 -9 -36 -15 -42 -16 -7 0 -19 -13 -27 -29 -10 -18 -32 -35 -58
-46 -41 -17 -347 -59 -357 -49 -11 11 26 25 199 74 102 28 188 55 192 58 4 4
10 21 14 37 l7 30 -20 -24 c-16 -19 -23 -22 -39 -13 -16 9 -23 5 -45 -21 -24
-28 -28 -30 -44 -17 -12 10 -15 23 -12 47 8 48 -4 40 -38 -25 -16 -31 -38 -58
-47 -60 -25 -5 -40 31 -28 63 14 38 -9 28 -32 -13 -25 -45 -79 -92 -103 -89
-27 3 -50 47 -41 81 9 35 49 76 75 76 16 0 22 -9 27 -40 4 -22 11 -37 16 -34
5 4 7 15 5 26 -10 38 9 65 49 71 50 8 59 -2 43 -47 -7 -19 -9 -39 -5 -43 12
-13 37 30 31 54 -3 12 0 33 6 46 9 20 18 24 52 23 45 -1 44 3 30 -71 -6 -30
-5 -30 15 -12 11 10 23 33 26 52 9 46 40 84 57 68 9 -9 7 -21 -10 -53 -11 -22
-21 -43 -21 -47 0 -16 34 26 56 69 27 54 44 62 44 21z m307 15 c-2 -7 -17 -52
-33 -100 -15 -49 -33 -88 -40 -88 -11 0 -23 49 -25 105 0 23 -6 14 -26 -42
-13 -40 -30 -73 -37 -73 -12 0 -42 177 -32 187 13 13 25 -13 32 -69 l7 -63 21
70 c27 87 48 94 57 17 4 -29 9 -55 11 -58 3 -2 10 15 17 38 21 69 30 88 42 88
6 0 9 -6 6 -12z m-837 -12 c0 -2 2 -11 5 -18 3 -8 -5 -26 -19 -41 -27 -29 -41
-35 -33 -13 8 21 -25 9 -64 -23 -43 -37 -32 -51 41 -51 60 0 90 -15 90 -46 0
-46 -87 -110 -164 -120 -44 -6 -46 -6 -46 18 0 30 21 51 43 43 27 -11 127 41
127 67 0 4 -34 8 -75 8 -79 0 -95 10 -95 59 0 41 109 120 168 121 12 0 22 -2
22 -4z m1194 -12 c9 -23 -19 -63 -51 -75 -24 -9 -25 -11 -10 -26 15 -15 18
-15 42 1 26 17 27 17 23 0 -4 -24 -53 -42 -76 -28 -26 17 -27 84 -2 117 24 30
64 36 74 11z m-154 -16 l0 -22 16 22 c8 12 22 22 30 22 20 0 18 -4 -15 -38
-17 -16 -33 -42 -36 -58 -11 -47 -14 -54 -25 -54 -9 0 -5 103 6 138 6 21 24
13 24 -10z m-120 2 c21 -13 1 -62 -33 -78 -15 -7 -27 -17 -27 -23 0 -16 27
-21 49 -9 17 8 21 8 21 -4 0 -8 -13 -19 -29 -24 -60 -21 -91 39 -56 108 20 38
46 49 75 30z m250 -235 c87 -45 137 -287 83 -407 -27 -59 -54 -76 -130 -84
l-61 -7 -6 44 c-9 71 -36 391 -36 426 0 27 4 32 28 36 58 9 94 6 122 -8z
m-195 -40 c0 -39 -1 -40 -40 -43 -22 -2 -44 -7 -49 -12 -5 -5 -5 -38 -2 -74
l7 -65 47 -3 c46 -3 47 -3 50 -40 3 -36 2 -38 -27 -38 -46 0 -61 -10 -61 -39
0 -61 8 -70 64 -73 l51 -3 0 -35 0 -35 -79 -8 c-46 -5 -82 -5 -87 0 -8 8 -19
108 -45 415 l-7 76 59 7 c33 3 66 8 74 10 36 8 45 0 45 -40z m-270 11 c39 -17
60 -52 70 -117 l7 -46 -34 -6 c-40 -6 -49 1 -57 49 -12 72 -65 70 -65 -2 0
-29 7 -42 31 -63 17 -14 52 -43 77 -64 52 -44 72 -95 60 -160 -10 -61 -50 -97
-110 -97 -40 0 -51 5 -79 34 -23 25 -34 48 -38 81 -8 58 -4 65 38 65 32 0 35
-3 41 -37 13 -74 45 -98 64 -48 17 44 1 85 -43 114 -75 48 -115 96 -122 145
-12 77 26 148 85 159 14 2 29 5 33 6 4 0 23 -5 42 -13z m-252 -28 c51 -27 62
-62 77 -255 12 -158 5 -196 -44 -229 -34 -22 -95 -22 -129 0 -38 26 -54 84
-67 243 -13 159 -7 198 37 233 29 23 92 27 126 8z m-298 -30 c2 -7 9 -78 15
-158 6 -80 13 -166 17 -192 l5 -47 47 -3 c45 -3 46 -4 49 -40 l3 -36 -53 -7
c-30 -4 -67 -5 -83 -3 -29 3 -30 5 -37 68 -16 144 -36 415 -32 422 8 13 64 9
69 -4z m-142 -19 c30 -23 50 -80 45 -124 -2 -25 -8 -30 -34 -33 -29 -3 -32 0
-37 33 -7 43 -23 65 -47 65 -39 0 -43 -21 -30 -172 7 -79 17 -151 22 -160 10
-21 53 -24 65 -5 4 6 8 30 8 52 0 39 1 40 38 43 l37 3 0 -56 c0 -84 -24 -120
-97 -140 -32 -9 -90 20 -112 56 -12 19 -22 60 -26 98 -3 36 -10 107 -15 156
-10 111 -5 138 32 175 24 25 38 30 77 30 34 0 56 -6 74 -21z"/>
<path d="M741 1156 c-8 -20 -9 -32 -1 -40 17 -17 30 6 21 39 l-8 30 -12 -29z"/>
<path d="M1100 1138 c-14 -5 -65 -22 -115 -38 -80 -26 -85 -29 -40 -24 71 8
163 34 176 51 16 18 9 21 -21 11z"/>
<path d="M1805 1288 c-9 -14 -11 -24 -5 -26 14 -5 40 17 40 34 0 21 -17 17
-35 -8z"/>
<path d="M1536 1264 c-11 -28 -7 -35 14 -24 23 12 27 40 6 40 -8 0 -17 -7 -20
-16z"/>
<path d="M1780 990 c-11 -7 -11 -31 -1 -147 15 -177 17 -183 42 -183 34 0 52
61 47 155 -7 119 -48 200 -88 175z"/>
<path d="M1037 933 c-17 -17 4 -305 24 -330 16 -18 58 -16 66 3 9 25 -16 305
-28 321 -12 14 -51 18 -62 6z"/>
<path d="M652 70 c0 -19 2 -27 5 -17 2 9 2 25 0 35 -3 9 -5 1 -5 -18z"/>
<path d="M1032 70 c0 -19 2 -29 5 -22 2 6 8 10 12 8 4 -3 8 1 8 9 0 8 -4 12
-8 9 -4 -2 -10 4 -12 13 -3 10 -5 2 -5 -17z"/>
<path d="M1387 94 c-3 -3 -3 -12 -1 -19 3 -7 -3 -15 -13 -17 -15 -3 -15 -5 5
-10 19 -5 22 -2 22 23 0 30 -2 34 -13 23z"/>
<path d="M1426 93 c6 -4 10 -18 9 -30 -1 -12 2 -20 7 -17 12 8 3 48 -13 52 -9
2 -10 1 -3 -5z"/>
<path d="M1460 83 c0 -15 2 -16 10 -3 8 13 10 12 11 -5 1 -11 1 -22 1 -25 -1
-14 52 -4 55 10 4 13 3 13 -6 0 -15 -22 -24 -5 -11 22 l11 23 -19 -24 c-19
-23 -19 -23 -25 -2 -6 25 -27 28 -27 4z"/>
<path d="M1555 90 c-3 -6 1 -7 9 -4 18 7 21 14 7 14 -6 0 -13 -4 -16 -10z"/>
<path d="M1647 93 c-4 -3 -7 -12 -7 -20 0 -15 26 -18 35 -3 3 6 -1 7 -9 4 -9
-3 -16 -2 -16 4 0 6 6 13 13 15 6 3 7 6 1 6 -6 1 -14 -2 -17 -6z"/>
<path d="M1739 79 c-7 -14 -8 -24 -1 -31 12 -12 32 -2 32 15 0 7 -4 6 -10 -3
-14 -22 -23 -5 -10 19 6 12 8 21 6 21 -3 0 -10 -9 -17 -21z"/>
<path d="M922 65 c0 -16 2 -22 5 -12 2 9 2 23 0 30 -3 6 -5 -1 -5 -18z"/>
<path d="M852 60 c0 -14 2 -19 5 -12 2 6 2 18 0 25 -3 6 -5 1 -5 -13z"/>
<path d="M974 62 c0 -10 8 -18 18 -18 16 0 16 2 1 18 -9 10 -17 18 -17 18 -1
0 -2 -8 -2 -18z"/>
<path d="M1100 60 c0 -11 4 -20 9 -20 5 0 7 9 4 20 -3 11 -7 20 -9 20 -2 0 -4
-9 -4 -20z"/>
<path d="M1232 60 c0 -14 2 -19 5 -12 2 6 2 18 0 25 -3 6 -5 1 -5 -13z"/>
<path d="M1700 70 c-13 -8 -12 -10 3 -10 9 0 17 5 17 10 0 12 -1 12 -20 0z"/>
<path d="M721 54 c0 -11 3 -14 6 -6 3 7 2 16 -1 19 -3 4 -6 -2 -5 -13z"/>
<path d="M808 63 c6 -2 18 -2 25 0 6 3 1 5 -13 5 -14 0 -19 -2 -12 -5z"/>
</g>
</svg>
