<?xml version="1.0" standalone="no"?>
<!DOCTYPE svg PUBLIC "-//W3C//DTD SVG 20010904//EN"
 "http://www.w3.org/TR/2001/REC-SVG-20010904/DTD/svg10.dtd">
<svg version="1.0" xmlns="http://www.w3.org/2000/svg"
 width="239.000000pt" height="211.000000pt" viewBox="0 0 239.000000 211.000000"
 preserveAspectRatio="xMidYMid meet">

<g transform="translate(0.000000,211.000000) scale(0.100000,-0.100000)"
fill="#000000" stroke="none">
<path d="M1307 1533 c-13 -12 -7 -23 13 -23 11 0 20 7 20 15 0 15 -21 21 -33
8z"/>
<path d="M1460 1463 c-1 -16 -7 -41 -15 -58 l-13 -30 -2 30 c-1 17 -2 36 -1
43 2 8 -5 12 -15 10 -11 -2 -24 -22 -34 -52 -23 -69 -40 -71 -40 -6 0 37 -4
50 -12 48 -17 -6 -22 -72 -8 -98 15 -27 52 -23 65 8 11 25 25 29 25 6 0 -30
43 -11 55 25 l11 33 12 -27 c24 -53 70 -18 97 74 13 43 -17 18 -34 -29 -9 -24
-21 -45 -27 -47 -12 -4 -28 72 -19 88 4 5 -5 9 -19 9 -22 0 -26 -5 -26 -27z"/>
<path d="M1093 1388 c-6 -7 -13 -33 -17 -57 -13 -85 -46 -107 -46 -30 0 35 -3
39 -25 39 -21 0 -25 -5 -25 -27 0 -38 -10 -73 -21 -73 -5 0 -9 14 -9 30 0 38
-27 52 -46 25 -8 -10 -14 -34 -14 -53 0 -19 -4 -31 -10 -27 -5 3 -10 20 -10
36 0 24 -4 30 -17 27 -10 -2 -19 -13 -21 -25 -2 -12 -10 -27 -17 -33 -12 -10
-17 -7 -26 14 -10 20 -19 26 -44 26 -41 0 -57 -20 -54 -63 4 -46 -21 -81 -84
-117 -84 -48 -115 -38 -124 43 -10 88 29 160 95 173 l32 7 0 -47 c0 -40 3 -47
18 -44 13 3 17 13 17 48 l0 45 -39 3 c-85 7 -149 -52 -162 -151 -12 -83 13
-127 70 -127 41 0 124 41 160 79 24 25 31 28 47 18 25 -15 49 -1 69 41 17 34
60 62 60 38 0 -7 7 -19 15 -26 22 -18 42 2 51 53 8 41 8 41 13 12 8 -41 43
-46 60 -8 8 16 16 23 18 16 7 -20 51 -15 65 6 9 15 16 17 30 10 24 -13 66 -1
83 25 16 24 33 116 19 103 -5 -5 -16 -29 -24 -54 -14 -43 -42 -74 -54 -62 -3
3 1 24 10 47 9 22 14 48 11 56 -8 19 -41 21 -54 4z m29 -43 c-6 -34 -12 -32
-12 6 0 16 4 28 9 25 4 -3 6 -17 3 -31z m-362 -134 c14 -42 8 -75 -12 -69 -17
6 -31 55 -24 83 9 36 21 31 36 -14z"/>
<path d="M1415 1301 c-149 -39 -460 -138 -506 -162 -38 -19 -59 -39 -40 -39 5
0 47 14 93 32 45 18 190 64 321 104 132 40 244 77 250 83 15 15 7 14 -118 -18z"/>
<path d="M1869 1263 c-2 -19 3 -90 7 -105 6 -20 41 -24 64 -7 12 8 9 10 -12 6
-24 -4 -28 -1 -28 19 0 18 6 24 22 24 12 0 18 3 14 7 -4 4 -15 8 -24 8 -28 0
-21 38 8 46 21 6 20 7 -12 8 -21 1 -38 -2 -39 -6z"/>
<path d="M1766 1253 c-16 -4 -18 -11 -12 -50 3 -25 6 -52 6 -59 0 -8 7 -14 16
-14 13 0 15 6 9 28 l-7 27 31 -29 c37 -36 54 -27 20 10 -16 18 -20 28 -11 31
17 7 15 50 -4 57 -17 6 -19 6 -48 -1z m39 -33 c0 -7 -6 -15 -12 -17 -8 -3 -13
4 -13 17 0 13 5 20 13 18 6 -3 12 -11 12 -18z"/>
<path d="M1657 1208 c-3 -18 -9 -48 -13 -65 -4 -22 -3 -33 5 -33 6 0 11 7 11
15 0 18 41 20 58 3 23 -23 22 0 -3 55 -28 64 -50 73 -58 25z m33 -17 c0 -5 3
-16 6 -25 4 -11 1 -16 -10 -16 -10 0 -16 9 -16 25 0 14 5 25 10 25 6 0 10 -4
10 -9z"/>
<path d="M1497 1223 c-11 -3 -16 -10 -13 -20 3 -8 6 -35 6 -59 l0 -44 40 0
c22 0 40 5 40 10 0 6 -11 8 -25 4 -22 -5 -25 -3 -25 19 0 19 6 27 23 30 19 4
18 4 -5 6 -21 1 -28 6 -28 21 0 11 6 20 14 20 8 0 18 5 21 10 6 10 -15 11 -48
3z"/>
<path d="M1434 1173 l-7 -48 -14 43 c-19 55 -43 56 -43 2 0 -47 -16 -53 -25
-10 -6 29 -21 47 -31 37 -2 -2 5 -29 17 -61 25 -64 49 -75 49 -22 0 47 14 52
29 10 21 -57 33 -44 47 49 4 30 3 47 -4 47 -6 0 -14 -21 -18 -47z"/>
<path d="M1893 1083 c-26 -3 -33 -9 -33 -26 0 -47 31 -275 45 -328 21 -80 18
-82 -16 -14 -16 33 -67 124 -112 203 -80 140 -83 143 -111 138 -16 -3 -36 -6
-45 -6 -15 0 -13 -27 16 -282 18 -156 32 -286 33 -290 0 -6 81 1 89 8 6 5 -29
273 -45 339 -19 82 -16 99 7 45 11 -25 61 -118 112 -207 l92 -163 45 6 c25 4
46 7 46 8 1 1 -63 568 -65 574 -1 1 -7 1 -13 0 -7 0 -28 -3 -45 -5z"/>
<path d="M1376 1024 c-59 -7 -109 -14 -111 -16 -5 -6 61 -557 67 -563 4 -4 63
-1 132 5 l126 13 0 29 0 29 -87 -3 -88 -3 -9 93 c-4 51 -6 96 -3 98 3 3 25 8
49 10 84 10 88 12 88 45 0 28 -2 30 -27 25 -16 -2 -49 -7 -74 -11 -54 -7 -53
-8 -65 111 l-6 72 28 5 c16 3 54 9 85 12 55 6 55 6 51 35 -5 34 3 34 -156 14z"/>
<path d="M970 978 c-41 -5 -76 -11 -78 -13 -3 -2 10 -127 27 -277 17 -150 31
-278 31 -284 0 -8 16 -10 48 -6 26 2 48 6 49 7 2 1 -4 57 -12 125 -9 67 -14
124 -13 125 2 2 32 10 68 19 93 24 123 56 128 138 7 141 -65 190 -248 166z
m120 -78 c23 -23 33 -56 28 -100 -3 -36 -36 -67 -78 -72 -27 -3 -25 -8 -44
140 l-7 52 41 0 c26 0 47 -7 60 -20z"/>
<path d="M567 936 c-101 -28 -135 -99 -124 -260 7 -103 36 -216 64 -254 40
-53 70 -67 142 -66 139 1 191 60 191 220 0 175 -41 308 -106 346 -42 25 -109
30 -167 14z m98 -62 c41 -16 74 -154 75 -312 0 -86 -2 -95 -25 -117 -49 -50
-114 -25 -139 53 -17 53 -36 191 -36 265 0 49 20 101 42 110 19 8 64 8 83 1z"/>
<path d="M1865 381 c-163 -20 -153 -30 25 -26 150 3 140 2 140 19 0 8 6 17 13
19 20 9 -31 5 -178 -12z"/>
<path d="M1635 350 c-4 -7 8 -8 37 -4 57 9 61 14 10 14 -22 0 -44 -5 -47 -10z"/>
<path d="M1563 343 c9 -2 23 -2 30 0 6 3 -1 5 -18 5 -16 0 -22 -2 -12 -5z"/>
<path d="M1478 333 c6 -2 18 -2 25 0 6 3 1 5 -13 5 -14 0 -19 -2 -12 -5z"/>
<path d="M1393 323 c9 -2 23 -2 30 0 6 3 -1 5 -18 5 -16 0 -22 -2 -12 -5z"/>
<path d="M1208 303 c7 -3 16 -2 19 1 4 3 -2 6 -13 5 -11 0 -14 -3 -6 -6z"/>
<path d="M1118 293 c6 -2 18 -2 25 0 6 3 1 5 -13 5 -14 0 -19 -2 -12 -5z"/>
<path d="M1023 283 c9 -2 25 -2 35 0 9 3 1 5 -18 5 -19 0 -27 -2 -17 -5z"/>
<path d="M910 270 c9 -4 31 -5 50 0 34 8 33 8 -15 9 -34 0 -45 -3 -35 -9z"/>
<path d="M838 258 c17 -8 26 -8 34 0 9 9 4 12 -22 11 -33 0 -34 -1 -12 -11z"/>
<path d="M622 245 c-63 -7 -115 -15 -117 -17 -3 -2 16 -10 41 -17 37 -11 48
-11 54 -1 4 7 17 10 29 7 19 -5 72 9 99 26 7 5 21 5 32 2 11 -3 28 -2 37 4 24
14 -27 13 -175 -4z"/>
</g>
</svg>
