<svg width="26" height="26" viewBox="0 0 26 26" fill="none" xmlns="http://www.w3.org/2000/svg">
<path fill-rule="evenodd" clip-rule="evenodd" d="M21 2.5H23C23.2761 2.5 23.5 2.72386 23.5 3V23C23.5 23.2761 23.2761 23.5 23 23.5H21C20.7239 23.5 20.5 23.2761 20.5 23V3C20.5 2.72386 20.7239 2.5 21 2.5ZM19 3C19 1.89543 19.8954 1 21 1H23C24.1046 1 25 1.89543 25 3V23C25 24.1046 24.1046 25 23 25H21C19.8954 25 19 24.1046 19 23V3ZM14 10.5H12C11.7239 10.5 11.5 10.7239 11.5 11V23C11.5 23.2761 11.7239 23.5 12 23.5H14C14.2761 23.5 14.5 23.2761 14.5 23V11C14.5 10.7239 14.2761 10.5 14 10.5ZM12 9C10.8954 9 10 9.89543 10 11V23C10 24.1046 10.8954 25 12 25H14C15.1046 25 16 24.1046 16 23V11C16 9.89543 15.1046 9 14 9H12ZM5 18.5H3C2.72386 18.5 2.5 18.7239 2.5 19V23C2.5 23.2761 2.72386 23.5 3 23.5H5C5.27614 23.5 5.5 23.2761 5.5 23V19C5.5 18.7239 5.27614 18.5 5 18.5ZM3 17C1.89543 17 1 17.8954 1 19V23C1 24.1046 1.89543 25 3 25H5C6.10457 25 7 24.1046 7 23V19C7 17.8954 6.10457 17 5 17H3Z" fill="white"/>
</svg>
