<svg width="26" height="26" viewBox="0 0 26 26" fill="none" xmlns="http://www.w3.org/2000/svg">
<path fill-rule="evenodd" clip-rule="evenodd" d="M21 1H23C24.1046 1 25 1.89543 25 3V23C25 24.1046 24.1046 25 23 25H21C19.8954 25 19 24.1046 19 23V3C19 1.89543 19.8954 1 21 1ZM14 9H12C10.8954 9 10 9.89543 10 11V23C10 24.1046 10.8954 25 12 25H14C15.1046 25 16 24.1046 16 23V11C16 9.89543 15.1046 9 14 9ZM5 17H3C1.89543 17 1 17.8954 1 19V23C1 24.1046 1.89543 25 3 25H5C6.10457 25 7 24.1046 7 23V19C7 17.8954 6.10457 17 5 17Z" fill="white"/>
</svg>
