<svg width="26" height="26" viewBox="0 0 26 26" fill="none" xmlns="http://www.w3.org/2000/svg">
<path fill-rule="evenodd" clip-rule="evenodd" d="M1 1.75C1.00259 1.55189 1.08244 1.36263 1.22253 1.22253C1.36263 1.08244 1.55189 1.00259 1.75 1H6.83C7.02811 1.00259 7.21737 1.08244 7.35747 1.22253C7.49756 1.36263 7.57741 1.55189 7.58 1.75V20H23.75C23.9489 20 24.1397 20.079 24.2803 20.2197C24.421 20.3603 24.5 20.5511 24.5 20.75C24.5 20.9489 24.421 21.1397 24.2803 21.2803C24.1397 21.421 23.9489 21.5 23.75 21.5H6.83C6.63109 21.5 6.44032 21.421 6.29967 21.2803C6.15902 21.1397 6.08 20.9489 6.08 20.75V2.5H1.75C1.55189 2.49741 1.36263 2.41756 1.22253 2.27747C1.08244 2.13737 1.00259 1.94811 1 1.75ZM19.5 25C20.3284 25 21 24.3284 21 23.5C21 22.6716 20.3284 22 19.5 22C18.6716 22 18 22.6716 18 23.5C18 24.3284 18.6716 25 19.5 25ZM13 23.5C13 24.3284 12.3284 25 11.5 25C10.6716 25 10 24.3284 10 23.5C10 22.6716 10.6716 22 11.5 22C12.3284 22 13 22.6716 13 23.5ZM17 1H11C9.89543 1 9 1.89543 9 3V7C9 8.10457 9.89543 9 11 9H17C18.1046 9 19 8.10457 19 7V3C19 1.89543 18.1046 1 17 1ZM11 10H23C24.1046 10 25 10.8954 25 12V16C25 17.1046 24.1046 18 23 18H11C9.89543 18 9 17.1046 9 16V12C9 10.8954 9.89543 10 11 10Z" fill="white"/>
</svg>
