<svg width="26" height="26" viewBox="0 0 26 26" fill="none" xmlns="http://www.w3.org/2000/svg">
<path fill-rule="evenodd" clip-rule="evenodd" d="M1 1.75C1 1.33579 1.33579 1 1.75 1H6.82692C7.24114 1 7.57692 1.33579 7.57692 1.75V20H23.75C24.1642 20 24.5 20.3358 24.5 20.75C24.5 21.1642 24.1642 21.5 23.75 21.5H6.82692C6.41271 21.5 6.07692 21.1642 6.07692 20.75V2.5H1.75C1.33579 2.5 1 2.16421 1 1.75ZM23.5 12C23.5 11.7239 23.2761 11.5 23 11.5H11C10.7239 11.5 10.5 11.7239 10.5 12V16C10.5 16.2761 10.7239 16.5 11 16.5H23C23.2761 16.5 23.5 16.2761 23.5 16V12ZM11 10C9.89543 10 9 10.8954 9 12V16C9 17.1046 9.89543 18 11 18H23C24.1046 18 25 17.1046 25 16V12C25 10.8954 24.1046 10 23 10H11ZM11 2.5H17C17.2761 2.5 17.5 2.72386 17.5 3V7C17.5 7.27614 17.2761 7.5 17 7.5H11C10.7239 7.5 10.5 7.27614 10.5 7V3C10.5 2.72386 10.7239 2.5 11 2.5ZM9 3C9 1.89543 9.89543 1 11 1H17C18.1046 1 19 1.89543 19 3V7C19 8.10457 18.1046 9 17 9H11C9.89543 9 9 8.10457 9 7V3ZM21 23.5C21 24.3284 20.3284 25 19.5 25C18.6716 25 18 24.3284 18 23.5C18 22.6716 18.6716 22 19.5 22C20.3284 22 21 22.6716 21 23.5ZM11.5 25C12.3284 25 13 24.3284 13 23.5C13 22.6716 12.3284 22 11.5 22C10.6716 22 10 22.6716 10 23.5C10 24.3284 10.6716 25 11.5 25Z" fill="white"/>
</svg>
