<svg width="26" height="26" viewBox="0 0 26 26" fill="none" xmlns="http://www.w3.org/2000/svg">
<path fill-rule="evenodd" clip-rule="evenodd" d="M9.68778 8.68315C9.68778 6.72291 11.0972 5 13 5C14.9029 5 16.3122 6.72331 16.3122 8.68345C16.3122 10.6436 14.9029 12.3669 13 12.3669C11.097 12.3669 9.68778 10.6432 9.68778 8.68315ZM2.73756 10.8293C2.73756 9.42157 3.76508 8.135 5.181 8.135C6.59691 8.135 7.62443 9.42157 7.62443 10.8293C7.62443 12.2371 6.59691 13.5236 5.181 13.5236C3.76508 13.5236 2.73756 12.2371 2.73756 10.8293ZM18.3756 10.8293C18.3756 9.42157 19.4031 8.135 20.819 8.135C22.2349 8.135 23.2624 9.42157 23.2624 10.8293C23.2624 12.2371 22.2349 13.5236 20.819 13.5236C19.4031 13.5236 18.3756 12.2371 18.3756 10.8293ZM9.00548 13.6564C10.101 13.1034 11.458 12.6843 13 12.6843C14.5431 12.6843 15.8994 13.104 16.9922 13.6454L16.9971 13.6478C18.2086 14.2598 18.9186 15.5989 18.9186 16.9881V21H7.08145V16.998C7.08145 15.6029 7.78862 14.2598 9.00548 13.6564ZM2.45803 14.5633C3.28664 14.1534 4.20805 13.9186 5.181 13.9186C5.57434 13.9186 5.93974 13.9646 6.28833 14.0288L7.2367 14.2036L6.78707 15.0724C6.49155 15.6434 6.32127 16.2988 6.32127 16.998V21H1V17.0375C1 15.9912 1.54684 15.0117 2.45803 14.5633ZM19.7117 14.0288C20.0603 13.9646 20.4257 13.9186 20.819 13.9186C21.7921 13.9186 22.7137 14.1535 23.5425 14.5635C24.4534 15.0121 25 15.9914 25 17.0375V21H19.6787V16.998C19.6787 16.2988 19.5085 15.6434 19.2129 15.0724L18.7633 14.2036L19.7117 14.0288Z" fill="white"/>
</svg>
