<svg width="26" height="26" viewBox="0 0 26 26" fill="none" xmlns="http://www.w3.org/2000/svg">
<path d="M22.31 7.00083H18.25V6.55083C18.2568 5.10203 17.7136 3.70463 16.73 2.64083C16.256 2.12371 15.6796 1.71081 15.0375 1.42834C14.3954 1.14587 13.7015 1 13 1C12.2985 1 11.6046 1.14587 10.9625 1.42834C10.3204 1.71081 9.74403 2.12371 9.27 2.64083C8.28644 3.70463 7.7432 5.10203 7.75 6.55083V7.00083H3.69C2.99675 6.98199 2.3243 7.23877 1.82006 7.7149C1.31582 8.19102 1.02092 8.84764 1 9.54083V22.4608C1.02092 23.154 1.31582 23.8106 1.82006 24.2868C2.3243 24.7629 2.99675 25.0197 3.69 25.0008H22.31C23.0033 25.0197 23.6757 24.7629 24.1799 24.2868C24.6842 23.8106 24.9791 23.154 25 22.4608V9.54083C24.9791 8.84764 24.6842 8.19102 24.1799 7.7149C23.6757 7.23877 23.0033 6.98199 22.31 7.00083ZM18.25 10.7508C18.25 10.9497 18.171 11.1405 18.0303 11.2812C17.8897 11.4218 17.6989 11.5008 17.5 11.5008C17.3011 11.5008 17.1103 11.4218 16.9697 11.2812C16.829 11.1405 16.75 10.9497 16.75 10.7508V7.00083H18.25V10.7508ZM9.25 6.55083C9.24378 5.48339 9.64424 4.45362 10.37 3.67083C10.7019 3.30241 11.1076 3.00783 11.5607 2.8062C12.0137 2.60456 12.5041 2.50037 13 2.50037C13.4959 2.50037 13.9863 2.60456 14.4393 2.8062C14.8924 3.00783 15.2981 3.30241 15.63 3.67083C16.3558 4.45362 16.7562 5.48339 16.75 6.55083V7.00083H9.25V6.55083ZM9.25 7.00083V10.7508C9.25 10.9497 9.17098 11.1405 9.03033 11.2812C8.88968 11.4218 8.69891 11.5008 8.5 11.5008C8.30109 11.5008 8.11032 11.4218 7.96967 11.2812C7.82902 11.1405 7.75 10.9497 7.75 10.7508V7.00083H9.25Z" fill="white"/>
</svg>
