<svg width="26" height="26" viewBox="0 0 26 26" fill="none" xmlns="http://www.w3.org/2000/svg">
<path fill-rule="evenodd" clip-rule="evenodd" d="M13 1C11.5914 1 10.2512 1.59723 9.27089 2.64275C8.29214 3.68664 7.75 5.0927 7.75 6.54948V7H3.69388C2.20609 7 1 8.13651 1 9.53846V22.4615C1 23.8635 2.20609 25 3.69388 25H22.3061C23.7939 25 25 23.8635 25 22.4615V9.53846C25 8.13651 23.7939 7 22.3061 7H18.25V6.54948C18.25 5.0927 17.7079 3.68664 16.7291 2.64275C15.7488 1.59723 14.4086 1 13 1ZM16.75 8.38462V10.7461C16.75 11.1603 17.0858 11.4961 17.5 11.4961C17.9142 11.4961 18.25 11.1603 18.25 10.7461V8.38462H22.3061C22.9824 8.38462 23.5306 8.90121 23.5306 9.53846V22.4615C23.5306 23.0988 22.9824 23.6154 22.3061 23.6154H3.69388C3.01761 23.6154 2.46939 23.0988 2.46939 22.4615V9.53846C2.46939 8.90121 3.01761 8.38462 3.69388 8.38462H7.75V10.7461C7.75 11.1603 8.08579 11.4961 8.5 11.4961C8.91421 11.4961 9.25 11.1603 9.25 10.7461V8.38462H16.75ZM16.75 7V6.54948C16.75 5.46046 16.3439 4.42499 15.6349 3.66872C14.9273 2.91409 13.9784 2.5 13 2.5C12.0216 2.5 11.0727 2.91409 10.3651 3.66872C9.65607 4.42499 9.25 5.46046 9.25 6.54948V7H16.75Z" fill="white"/>
</svg>
