<svg width="26" height="26" viewBox="0 0 26 26" fill="none" xmlns="http://www.w3.org/2000/svg">
<path fill-rule="evenodd" clip-rule="evenodd" d="M22.9965 1.94147C23.0171 1.71468 22.9468 1.48897 22.801 1.31387C22.7294 1.22618 22.641 1.15364 22.5409 1.10052C22.4409 1.0474 22.3312 1.01475 22.2183 1.00451C22.1055 0.994268 21.9917 1.00663 21.8837 1.04087C21.7757 1.07511 21.6757 1.13053 21.5894 1.2039L15.3713 6.39265L11.3661 1.32387C11.2223 1.14494 11.0136 1.02995 10.7854 1.00395C10.6721 0.992948 10.5578 1.005 10.4494 1.03937C10.341 1.07373 10.2407 1.12971 10.1545 1.2039L3.2856 7.0025C3.12483 7.14673 3.02425 7.34606 3.00385 7.5609C2.98344 7.77574 3.0447 7.99039 3.17546 8.16222C3.24706 8.24992 3.33548 8.32245 3.43552 8.37557C3.53557 8.4287 3.64524 8.46134 3.75809 8.47158C3.87094 8.48182 3.9847 8.46946 4.0927 8.43523C4.20071 8.40099 4.30077 8.34556 4.38704 8.27219L10.6051 3.09344L14.6103 8.15222C14.6799 8.2425 14.7674 8.3175 14.8673 8.37254C14.9673 8.42758 15.0775 8.46149 15.1911 8.47215C15.3043 8.48314 15.4186 8.4711 15.527 8.43673C15.6354 8.40236 15.7358 8.34639 15.8219 8.27219L22.6908 2.52358C22.8659 2.37761 22.9758 2.16826 22.9965 1.94147ZM11.509 5.17578L12.7005 6.67578H7.19336L8.98569 5.17578H11.509ZM21.1084 5.17578H20.4275L18.6352 6.67542H21.1084C21.1748 6.67542 21.2384 6.70175 21.2854 6.74863C21.3323 6.7955 21.3587 6.85907 21.3587 6.92536V9.50474C21.3587 9.57103 21.3323 9.6346 21.2854 9.68147C21.2384 9.72834 21.1748 9.75468 21.1084 9.75468H4.87728C4.81089 9.75468 4.74722 9.72834 4.70027 9.68147C4.65333 9.6346 4.62695 9.57103 4.62695 9.50474V8.81491C4.40156 8.95489 4.14142 9.02908 3.87598 9.02908C3.61054 9.02908 3.3504 8.95489 3.125 8.81491V9.50474C3.12552 9.92773 3.27863 10.3364 3.5563 10.6559C3.83397 10.9753 4.21761 11.1842 4.63696 11.2443V22.2417C4.63565 22.6036 4.7059 22.9621 4.84369 23.2969C4.98148 23.6316 5.1841 23.9359 5.43992 24.1922C5.69575 24.4486 5.99974 24.652 6.33448 24.7908C6.66921 24.9296 7.02809 25.001 7.39054 25.001H18.5851C19.3154 25.001 20.0158 24.7113 20.5322 24.1957C21.0486 23.6801 21.3387 22.9808 21.3387 22.2517V11.2543C21.7616 11.1962 22.1489 10.9868 22.4289 10.665C22.7088 10.3432 22.8622 9.93095 22.8607 9.50474V6.92536C22.858 6.46215 22.6726 6.01866 22.3445 5.69112C22.0165 5.36358 21.5723 5.17841 21.1084 5.17578ZM15.2407 16.0032H10.7349C10.5357 16.0032 10.3447 15.9242 10.2039 15.7836C10.063 15.6429 9.98391 15.4522 9.98391 15.2534C9.98391 15.0545 10.063 14.8638 10.2039 14.7232C10.3447 14.5825 10.5357 14.5035 10.7349 14.5035H15.2407C15.4399 14.5035 15.6309 14.5825 15.7718 14.7232C15.9126 14.8638 15.9917 15.0545 15.9917 15.2534C15.9917 15.4522 15.9126 15.6429 15.7718 15.7836C15.6309 15.9242 15.4399 16.0032 15.2407 16.0032Z" fill="white"/>
</svg>
