<svg width="26" height="26" viewBox="0 0 26 26" fill="none" xmlns="http://www.w3.org/2000/svg">
<path fill-rule="evenodd" clip-rule="evenodd" d="M22.8013 1.31031C23.1044 1.67619 23.0552 2.21997 22.6916 2.52487L15.8344 8.27396C15.6575 8.42229 15.4287 8.49275 15.1996 8.46947C14.9704 8.44619 14.7603 8.33112 14.6164 8.15019L10.5912 3.08809L4.40589 8.27396C4.04223 8.57886 3.50174 8.52943 3.19869 8.16354C2.89563 7.79766 2.94477 7.25389 3.30843 6.94899L10.1656 1.1999C10.3425 1.05157 10.5713 0.981103 10.8004 1.00439C11.0296 1.02767 11.2397 1.14274 11.3836 1.32367L15.4088 6.38576L21.5941 1.1999C21.9578 0.894998 22.4983 0.944433 22.8013 1.31031ZM3.14453 8.85765V9.50194C3.14453 10.3903 3.80649 11.1241 4.66406 11.2369V22.248C4.66406 23.7668 5.89528 24.998 7.41406 24.998H18.5904C20.1091 24.998 21.3404 23.7668 21.3404 22.248V11.2364C22.1961 11.1219 22.8561 10.389 22.8561 9.50194V6.92188C22.8561 5.95538 22.0726 5.17188 21.1061 5.17188H20.429L18.6399 6.67188H21.1061C21.2442 6.67188 21.3561 6.7838 21.3561 6.92188V9.50194C21.3561 9.64001 21.2442 9.75194 21.1061 9.75194H4.89453C4.75646 9.75194 4.64453 9.64001 4.64453 9.50194V8.81234C4.18691 9.11661 3.60403 9.12413 3.14453 8.85765ZM7.21132 6.67188H12.7097L11.517 5.17188H9.00042L7.21132 6.67188ZM6.16406 11.2578V22.248C6.16406 22.9384 6.72371 23.498 7.41406 23.498H18.5904C19.2807 23.498 19.8404 22.9384 19.8404 22.248V11.2578H6.16406ZM10.75 14.5117C10.3358 14.5117 10 14.8475 10 15.2617C10 15.6759 10.3358 16.0117 10.75 16.0117H15.25C15.6642 16.0117 16 15.6759 16 15.2617C16 14.8475 15.6642 14.5117 15.25 14.5117H10.75Z" fill="white"/>
</svg>
