<svg width="26" height="26" viewBox="0 0 26 26" fill="none" xmlns="http://www.w3.org/2000/svg">
<path fill-rule="evenodd" clip-rule="evenodd" d="M4.96025 4.16475C4.74058 3.94508 4.38442 3.94508 4.16475 4.16475C3.94508 4.38442 3.94508 4.74058 4.16475 4.96025L12.2045 13L4.16475 21.0398C3.94508 21.2594 3.94508 21.6156 4.16475 21.8352C4.38442 22.0549 4.74058 22.0549 4.96025 21.8352L13 13.7955L21.0398 21.8352C21.2594 22.0549 21.6156 22.0549 21.8352 21.8352C22.0549 21.6156 22.0549 21.2594 21.8352 21.0398L13.7955 13L21.8352 4.96025C22.0549 4.74058 22.0549 4.38442 21.8352 4.16475C21.6156 3.94508 21.2594 3.94508 21.0398 4.16475L13 12.2045L4.96025 4.16475Z" fill="#808080"/>
</svg>
