<svg width="26" height="26" viewBox="0 0 26 26" fill="none" xmlns="http://www.w3.org/2000/svg">
<path fill-rule="evenodd" clip-rule="evenodd" d="M12.75 1C11.7835 1 11 1.7835 11 2.75V8.25C11 8.66421 11.3358 9 11.75 9C12.1642 9 12.5 8.66421 12.5 8.25V2.75C12.5 2.61193 12.6119 2.5 12.75 2.5H23.25C23.3881 2.5 23.5 2.61193 23.5 2.75V23.25C23.5 23.3881 23.3881 23.5 23.25 23.5H12.75C12.6119 23.5 12.5 23.3881 12.5 23.25V17.75C12.5 17.3358 12.1642 17 11.75 17C11.3358 17 11 17.3358 11 17.75V23.25C11 24.2165 11.7835 25 12.75 25H23.25C24.2165 25 25 24.2165 25 23.25V2.75C25 1.7835 24.2165 1 23.25 1H12.75ZM1.21967 12.4719C0.926777 12.7636 0.926777 13.2364 1.21967 13.5281L5.99264 18.2812C6.28553 18.5729 6.76041 18.5729 7.0533 18.2812C7.34619 17.9896 7.34619 17.5167 7.0533 17.225L3.56066 13.7469H17.5C17.9142 13.7469 18.25 13.4125 18.25 13C18.25 12.5875 17.9142 12.2531 17.5 12.2531H3.56066L7.0533 8.77501C7.34619 8.48333 7.34619 8.01043 7.0533 7.71876C6.76041 7.42708 6.28553 7.42708 5.99264 7.71876L1.21967 12.4719Z" fill="#808080"/>
</svg>
