<svg width="24" height="24" viewBox="0 0 24 24" fill="none" xmlns="http://www.w3.org/2000/svg">
<path fill-rule="evenodd" clip-rule="evenodd" d="M9.23757 18.2039L9.24128 18.2045L9.25587 18.2068L9.31556 18.2161C9.36823 18.2242 9.44553 18.236 9.54187 18.2502C9.73496 18.2787 10.0025 18.3166 10.3004 18.3544C10.9211 18.4332 11.5868 18.5 12 18.5C18.0667 18.5 22.5 14.45 22.5 10C22.5 5.55004 18.0667 1.5 12 1.5C5.93332 1.5 1.5 5.55004 1.5 10C1.5 11.6859 2.00241 12.9223 2.48592 13.7285C2.72945 14.1345 2.96927 14.4327 3.13938 14.6218C3.22421 14.716 3.29085 14.7823 3.33072 14.8202C3.35061 14.8392 3.36371 14.851 3.36893 14.8556L3.37016 14.8567C3.77534 15.2008 3.96839 15.7341 3.87669 16.2584L3.04601 21.0082C3.03162 21.0904 3.11847 21.153 3.19199 21.1134L8.28791 18.3648C8.57814 18.2082 8.91197 18.1517 9.23757 18.2039ZM1.1815 23.9021C1.10799 23.9418 1.02114 23.8791 1.03553 23.7969L2.38915 16.057C2.39532 16.0217 2.38379 15.9872 2.35724 15.9632C2.03789 15.6743 0 13.6866 0 10C0 4.47715 5.37258 0 12 0C18.6274 0 24 4.47715 24 10C24 15.5228 18.6274 20 12 20C11.0422 20 9.29087 19.7307 9.03225 19.6901C9.01053 19.6866 8.98951 19.6906 8.97016 19.701L1.1815 23.9021Z" fill="#808080"/>
</svg>
