<svg width="26" height="26" viewBox="0 0 26 26" fill="none" xmlns="http://www.w3.org/2000/svg">
<path fill-rule="evenodd" clip-rule="evenodd" d="M21.149 18.4204L21.1502 18.4219L21.2541 18.5536C21.3114 18.6263 21.3752 18.7072 21.4045 18.7441C21.4514 18.8034 21.486 18.8824 21.4966 18.9731C21.5073 19.0642 21.4922 19.1546 21.4567 19.2317L21.4557 19.234C21.3775 19.4047 21.2302 19.5 21.0402 19.5H4.96576C4.7679 19.5 4.6205 19.4007 4.54487 19.2342L4.54292 19.23C4.50762 19.1529 4.49266 19.0627 4.50343 18.9717C4.51417 18.8809 4.549 18.802 4.59601 18.7427L4.6045 18.732C4.67561 18.6407 4.74551 18.5526 4.81914 18.4599L4.85059 18.4203L4.88839 18.3727C5.44509 17.6711 6.04098 16.9202 6.44124 15.7671C6.83871 14.622 7.01322 13.1836 7.01322 11.0742C7.01322 9.40126 7.33427 8.14998 7.88526 7.21481C8.42616 6.29679 9.25208 5.57446 10.4656 5.05269L10.5499 5.01644L10.6292 4.97018C10.7926 4.8748 10.9365 4.75339 11.0563 4.61293L11.2677 4.36518L11.3573 4.05209C11.6697 2.96078 12.4223 2.5 13.0001 2.5C13.5778 2.5 14.3309 2.96066 14.6433 4.05333L14.7287 4.35201L14.9257 4.5922C15.0497 4.74332 15.2011 4.87353 15.3747 4.97438L15.4529 5.01982L15.536 5.05554C16.5834 5.50561 17.3094 6.08099 17.8348 6.79856L17.8356 6.79965C18.5526 7.77701 18.9876 9.1762 18.9876 11.0758C18.9876 13.1847 19.1624 14.6226 19.56 15.7677C19.9597 16.9188 20.5543 17.6695 21.1094 18.3704L21.149 18.4204ZM22.4457 17.6423C22.4899 17.6984 22.5345 17.755 22.5795 17.8117C22.8027 18.0932 22.9439 18.4357 22.9864 18.7985C23.029 19.1613 22.971 19.5292 22.8195 19.8586C22.4973 20.5619 21.8177 21 21.0402 21H4.96576C4.18465 21 3.50033 20.5614 3.17925 19.8548C3.02834 19.5254 2.97094 19.1578 3.01382 18.7955C3.0567 18.4331 3.19809 18.0911 3.42123 17.8101C3.49695 17.7129 3.57147 17.619 3.64479 17.5267L3.6757 17.4878C4.82161 16.0431 5.51322 15.1702 5.51322 11.0742C5.51322 7.3565 6.9391 4.93619 9.87308 3.67467C9.88892 3.66543 9.90316 3.65349 9.91523 3.63935C10.3675 2.05933 11.6044 1 13.0001 1C14.3958 1 15.6333 2.05933 16.0855 3.64098C16.0976 3.65566 16.112 3.66799 16.1282 3.67739C17.3855 4.21765 18.3394 4.94869 19.045 5.91236C20.002 7.21681 20.4876 8.95608 20.4876 11.0758C20.4876 15.1681 21.1795 16.0422 22.3233 17.4871L22.3251 17.4894C22.3648 17.5394 22.4053 17.5909 22.4457 17.6423ZM15.3145 24.2905C14.6149 24.7541 13.815 24.9993 12.9997 25C12.1846 24.9992 11.3848 24.7539 10.6852 24.2904C9.98566 23.8268 9.41238 23.1621 9.02618 22.3669C9.00796 22.3287 8.99897 22.286 9.00009 22.2428C9.00121 22.1997 9.0124 22.1576 9.03257 22.1206C9.05273 22.0837 9.08119 22.0532 9.11517 22.032C9.14915 22.0109 9.18749 21.9998 9.22647 22H16.7741C16.813 22 16.8513 22.0111 16.8852 22.0323C16.9191 22.0534 16.9475 22.084 16.9676 22.1209C16.9877 22.1578 16.9988 22.1999 16.9999 22.243C17.001 22.2861 16.992 22.3288 16.9738 22.3669C16.5876 23.1622 16.0142 23.827 15.3145 24.2905Z" fill="#808080"/>
</svg>
