<svg width="26" height="26" viewBox="0 0 26 26" fill="none" xmlns="http://www.w3.org/2000/svg">
<path fill-rule="evenodd" clip-rule="evenodd" d="M17.5 10C17.5 14.1421 14.1421 17.5 10 17.5C5.85786 17.5 2.5 14.1421 2.5 10C2.5 5.85786 5.85786 2.5 10 2.5C14.1421 2.5 17.5 5.85786 17.5 10ZM15.8116 16.8723C14.2436 18.1996 12.2153 19 10 19C5.02944 19 1 14.9706 1 10C1 5.02944 5.02944 1 10 1C14.9706 1 19 5.02944 19 10C19 12.2153 18.1996 14.2436 16.8723 15.8116L24.7803 23.7197C25.0732 24.0126 25.0732 24.4874 24.7803 24.7803C24.4874 25.0732 24.0126 25.0732 23.7197 24.7803L15.8116 16.8723Z" fill="#808080"/>
</svg>
