<svg width="26" height="26" viewBox="0 0 26 26" fill="none" xmlns="http://www.w3.org/2000/svg">
<path fill-rule="evenodd" clip-rule="evenodd" d="M1 3.69388C1 2.20609 2.20609 1 3.69388 1H17.4082C18.896 1 20.102 2.20609 20.102 3.69388V13.7864C20.2237 13.8025 20.345 13.8225 20.4659 13.8465C21.5585 14.0639 22.5622 14.6003 23.3499 15.3881C24.1377 16.1758 24.6741 17.1794 24.8915 18.2721C25.1088 19.3647 24.9972 20.4972 24.5709 21.5265C24.1446 22.5557 23.4226 23.4354 22.4963 24.0543C21.5701 24.6733 20.481 25.0036 19.367 25.0036H16.4283C16.4036 25.0036 16.3792 25.0024 16.3552 25H3.69388C2.20609 25 1 23.7939 1 22.3061V3.69388ZM16.4297 23.5342H19.367C20.1904 23.5342 20.9954 23.29 21.68 22.8326C22.3647 22.3751 22.8983 21.7249 23.2134 20.9642C23.5285 20.2034 23.6109 19.3663 23.4503 18.5587C23.2897 17.7511 22.8932 17.0093 22.3109 16.4271C21.7287 15.8448 20.9868 15.4483 20.1792 15.2877C19.3717 15.127 18.5346 15.2095 17.7738 15.5246C17.0131 15.8397 16.3629 16.3733 15.9054 17.0579C15.4479 17.7426 15.2038 18.5475 15.2038 19.3709C15.2038 19.7767 14.8748 20.1056 14.4691 20.1056C14.0633 20.1056 13.7344 19.7767 13.7344 19.3709C13.7344 18.2569 14.0647 17.1679 14.6837 16.2416C15.3026 15.3153 16.1823 14.5934 17.2115 14.167C17.669 13.9775 18.1469 13.8502 18.6327 13.7864V3.69388C18.6327 3.01761 18.0844 2.46939 17.4082 2.46939H3.69388C3.01761 2.46939 2.46939 3.01761 2.46939 3.69388V22.3061C2.46939 22.9824 3.01761 23.5306 3.69388 23.5306H16.4297V23.5342ZM19.3672 16.4219C19.6433 16.4219 19.8672 16.6457 19.8672 16.9219V18.8709H21.8162C22.0923 18.8709 22.3162 19.0947 22.3162 19.3709C22.3162 19.647 22.0923 19.8709 21.8162 19.8709H19.3672C19.091 19.8709 18.8672 19.647 18.8672 19.3709V16.9219C18.8672 16.6457 19.091 16.4219 19.3672 16.4219ZM5.95776 4.07812C5.69851 4.07812 5.48835 4.28829 5.48835 4.54754C5.48835 4.80678 5.69851 5.01695 5.95776 5.01695L14.8766 5.01695C15.1358 5.01695 15.346 4.80678 15.346 4.54754C15.346 4.28829 15.1358 4.07813 14.8766 4.07813L5.95776 4.07812ZM3.60938 7.36785C3.60938 7.1086 3.81954 6.89844 4.07879 6.89844H5.01761C5.27685 6.89844 5.48702 7.1086 5.48702 7.36785C5.48702 7.6271 5.27685 7.83726 5.01761 7.83726H4.07879C3.81954 7.83726 3.60938 7.6271 3.60938 7.36785ZM6.89519 6.89844C6.63594 6.89844 6.42578 7.1086 6.42578 7.36785C6.42578 7.6271 6.63594 7.83726 6.89519 7.83726H16.7528C17.0121 7.83726 17.2222 7.6271 17.2222 7.36785C17.2222 7.1086 17.0121 6.89844 16.7528 6.89844H6.89519ZM3.60938 10.1764C3.60938 9.91719 3.81954 9.70703 4.07879 9.70703H5.01761C5.27685 9.70703 5.48702 9.91719 5.48702 10.1764C5.48702 10.4357 5.27685 10.6459 5.01761 10.6459H4.07879C3.81954 10.6459 3.60938 10.4357 3.60938 10.1764ZM6.89519 9.70703C6.63594 9.70703 6.42578 9.91719 6.42578 10.1764C6.42578 10.4357 6.63594 10.6459 6.89519 10.6459H16.7528C17.0121 10.6459 17.2222 10.4357 17.2222 10.1764C17.2222 9.91719 17.0121 9.70703 16.7528 9.70703H6.89519ZM3.60938 13.0007C3.60938 12.7414 3.81954 12.5312 4.07879 12.5312H5.01761C5.27685 12.5312 5.48702 12.7414 5.48702 13.0007C5.48702 13.2599 5.27685 13.4701 5.01761 13.4701H4.07879C3.81954 13.4701 3.60938 13.2599 3.60938 13.0007ZM6.89519 12.5312C6.63594 12.5312 6.42578 12.7414 6.42578 13.0007C6.42578 13.2599 6.63594 13.4701 6.89519 13.4701H16.7528C17.0121 13.4701 17.2222 13.2599 17.2222 13.0007C17.2222 12.7414 17.0121 12.5312 16.7528 12.5312H6.89519Z" fill="white"/>
</svg>
