<svg width="26" height="26" viewBox="0 0 26 26" fill="none" xmlns="http://www.w3.org/2000/svg">
<path fill-rule="evenodd" clip-rule="evenodd" d="M20 3.60002V15C21.3261 15 22.5979 15.5268 23.5356 16.4645C24.4732 17.4022 25 18.6739 25 20C25 21.3261 24.4732 22.5979 23.5356 23.5356C22.5979 24.4732 21.3261 25 20 25H3.60002C3.25821 25.0013 2.91952 24.935 2.60348 24.8048C2.28744 24.6746 2.00029 24.4831 1.75859 24.2414C1.5169 23.9998 1.32543 23.7126 1.19524 23.3966C1.06505 23.0805 0.998697 22.7418 1.00002 22.4V3.60002C0.998697 3.25821 1.06505 2.91952 1.19524 2.60348C1.32543 2.28744 1.5169 2.00029 1.75859 1.75859C2.00029 1.5169 2.28744 1.32543 2.60348 1.19524C2.91952 1.06505 3.25821 0.998697 3.60002 1.00002H17.4C17.7418 0.998697 18.0805 1.06505 18.3966 1.19524C18.7126 1.32543 18.9998 1.5169 19.2414 1.75859C19.4831 2.00029 19.6746 2.28744 19.8048 2.60348C19.935 2.91952 20.0013 3.25821 20 3.60002ZM19.25 20.4908H21.7C21.8326 20.4908 21.9598 20.4381 22.0536 20.3443C22.1473 20.2506 22.2 20.1234 22.2 19.9908C22.2 19.8582 22.1473 19.731 22.0536 19.6372C21.9598 19.5435 21.8326 19.4908 21.7 19.4908H19.75V17.5508C19.75 17.4182 19.6973 17.291 19.6036 17.1972C19.5098 17.1035 19.3826 17.0508 19.25 17.0508C19.1174 17.0508 18.9902 17.1035 18.8964 17.1972C18.8027 17.291 18.75 17.4182 18.75 17.5508V19.9908C18.75 20.1234 18.8027 20.2506 18.8964 20.3443C18.9902 20.4381 19.1174 20.4908 19.25 20.4908ZM5.57032 4.55031C5.56989 4.43229 5.61388 4.31843 5.69354 4.23135C5.77321 4.14427 5.88272 4.09036 6.00032 4.08031H15.0003C15.0687 4.06597 15.1395 4.06707 15.2074 4.08353C15.2754 4.09999 15.3388 4.1314 15.393 4.17547C15.4473 4.21953 15.4911 4.27515 15.5211 4.33827C15.5512 4.40138 15.5668 4.47041 15.5668 4.54031C15.5668 4.61022 15.5512 4.67924 15.5211 4.74236C15.4911 4.80547 15.4473 4.86109 15.393 4.90516C15.3388 4.94923 15.2754 4.98063 15.2074 4.9971C15.1395 5.01356 15.0687 5.01466 15.0003 5.00031H6.00032C5.88609 4.99064 5.77935 4.93957 5.70015 4.85669C5.62096 4.77381 5.57478 4.66485 5.57032 4.55031ZM3.82516 7.0361C3.73702 7.12424 3.6875 7.24379 3.6875 7.36844C3.6875 7.43016 3.69966 7.49128 3.72328 7.5483C3.7469 7.60532 3.78152 7.65713 3.82516 7.70078C3.8688 7.74442 3.92062 7.77904 3.97764 7.80266C4.03466 7.82628 4.09578 7.83844 4.1575 7.83844H5.0975C5.22215 7.83844 5.3417 7.78892 5.42984 7.70078C5.51798 7.61264 5.5675 7.49309 5.5675 7.36844C5.5675 7.24379 5.51798 7.12424 5.42984 7.0361C5.3417 6.94796 5.22215 6.89844 5.0975 6.89844H4.1575C4.03285 6.89844 3.9133 6.94796 3.82516 7.0361ZM6.50781 7.36886C6.50776 7.30542 6.52054 7.24263 6.5454 7.18426C6.57026 7.12589 6.60668 7.07316 6.65247 7.02925C6.69825 6.98533 6.75245 6.95114 6.8118 6.92873C6.87115 6.90632 6.93443 6.89616 6.99781 6.89886H16.8578C16.9825 6.89886 17.102 6.94838 17.1902 7.03652C17.2783 7.12466 17.3278 7.24421 17.3278 7.36886C17.3278 7.49352 17.2783 7.61306 17.1902 7.7012C17.102 7.78935 16.9825 7.83886 16.8578 7.83886H6.99781C6.93443 7.84156 6.87115 7.8314 6.8118 7.80899C6.75245 7.78659 6.69825 7.75239 6.65247 7.70848C6.60668 7.66456 6.57026 7.61183 6.5454 7.55347C6.52054 7.4951 6.50776 7.4323 6.50781 7.36886ZM3.82516 9.8486C3.73702 9.93674 3.6875 10.0563 3.6875 10.1809C3.6875 10.3056 3.73702 10.4251 3.82516 10.5133C3.9133 10.6014 4.03285 10.6509 4.1575 10.6509H5.0975C5.22215 10.6509 5.3417 10.6014 5.42984 10.5133C5.51798 10.4251 5.5675 10.3056 5.5675 10.1809C5.5675 10.0563 5.51798 9.93674 5.42984 9.8486C5.3417 9.76046 5.22215 9.71094 5.0975 9.71094H4.1575C4.03285 9.71094 3.9133 9.76046 3.82516 9.8486ZM6.50781 10.1814C6.50776 10.1179 6.52054 10.0551 6.5454 9.99676C6.57026 9.93839 6.60668 9.88566 6.65247 9.84175C6.69825 9.79783 6.75245 9.76364 6.8118 9.74123C6.87115 9.71882 6.93443 9.70866 6.99781 9.71136H16.8578C16.9825 9.71136 17.102 9.76088 17.1902 9.84902C17.2783 9.93717 17.3278 10.0567 17.3278 10.1814C17.3278 10.306 17.2783 10.4256 17.1902 10.5137C17.102 10.6018 16.9825 10.6514 16.8578 10.6514H6.99781C6.93443 10.6541 6.87115 10.6439 6.8118 10.6215C6.75245 10.5991 6.69825 10.5649 6.65247 10.521C6.60668 10.4771 6.57026 10.4243 6.5454 10.366C6.52054 10.3076 6.50776 10.2448 6.50781 10.1814ZM3.82516 12.6689C3.73702 12.7571 3.6875 12.8766 3.6875 13.0013C3.6875 13.1259 3.73702 13.2454 3.82516 13.3336C3.9133 13.4217 4.03285 13.4713 4.1575 13.4713H5.0975C5.22215 13.4713 5.3417 13.4217 5.42984 13.3336C5.51798 13.2454 5.5675 13.1259 5.5675 13.0013C5.5675 12.8766 5.51798 12.7571 5.42984 12.6689C5.3417 12.5808 5.22215 12.5312 5.0975 12.5312H4.1575C4.03285 12.5312 3.9133 12.5808 3.82516 12.6689ZM6.50781 13.0017C6.50776 12.9382 6.52054 12.8754 6.5454 12.8171C6.57026 12.7587 6.60668 12.706 6.65247 12.6621C6.69825 12.6181 6.75245 12.584 6.8118 12.5615C6.87115 12.5391 6.93443 12.529 6.99781 12.5317H16.8578C16.9825 12.5317 17.102 12.5812 17.1902 12.6693C17.2783 12.7575 17.3278 12.877 17.3278 13.0017C17.3278 13.1263 17.2783 13.2459 17.1902 13.334C17.102 13.4222 16.9825 13.4717 16.8578 13.4717H6.99781C6.93443 13.4744 6.87115 13.4642 6.8118 13.4418C6.75245 13.4194 6.69825 13.3852 6.65247 13.3413C6.60668 13.2974 6.57026 13.2446 6.5454 13.1863C6.52054 13.1279 6.50776 13.0651 6.50781 13.0017ZM17.7699 15.5147L17.7979 15.5031C18.5423 15.1947 19.0123 15 20 14.998V14.249V13.5C19 13.5 18.2368 13.7308 17.2076 14.1572C16.1784 14.5835 15.2987 15.3054 14.6797 16.2317C14.0608 17.158 13.7305 18.247 13.7305 19.3611C13.7305 19.7668 14.0594 20.0958 14.4652 20.0958C14.8709 20.0958 15.1999 19.7668 15.1999 19.3611C15.1999 18.5376 15.444 17.7327 15.9015 17.0481C16.359 16.3634 17.0092 15.8298 17.7699 15.5147Z" fill="white"/>
</svg>
